<svg xmlns="http://www.w3.org/2000/svg" viewBox="0 0 779.85 880.92"><defs><style>.cls-1{fill:#fff;}</style></defs><g id="Layer_2" data-name="Layer 2"><g id="Layer_1-2" data-name="Layer 1"><g id="Layer_1-2-2" data-name="Layer 1-2"><path class="cls-1" d="M256.57,448.45c.3,5.28.06,9.74.07,14.15q.28,127.81.67,255.63c0,7.27-.1,19.51-.1,19.51.08-.47,8,.21,13.4.44,10.24-.11,19.47,0,29.48,0,6.61-.14,10.89-.44,10.89-.44s.23-6.88.15-10.78c-.35-16.74,0-33.49,0-50.22s-.06-46-.05-62.8l34.48-.44c-.13,9.56,0,29.78,0,39.35,0,25.11.16,50.23-.07,75.34v4.08a4.42,4.42,0,0,0,4.44,4.4h.1c1,0,2-.06,2.9-.07,10.42-.21,20.83-.33,31.22-.89,6.54-.35,10.3-4.37,11.25-10.77a89.11,89.11,0,0,0,1.27-13.34q-.21-50.22-.69-100.45c-.19-25.24-9.72-35.39-35.26-35.81-13.42-.23-25.3-2.59-35-12.67-7.82-8.09-13-17.31-13-28.6-.16-26-.29-52,.2-78,.27-14.77,7-27,20.13-33.85,25.58-13.37,52-15.15,77.92-.84,15.81,8.75,23.84,23,24.11,41.28.17,11.66.16,29.67.45,41.33l-34.61-.19c.11-10.18,0-28-.26-38.12-.24-10.8-5.09-16.56-15.6-18.63a62.11,62.11,0,0,0-13.32-1.38c-19.09.39-25.56,7.18-25.46,26.16.11,18.24.17,36.47.29,54.71.07,11.2,1.54,13,13,13,22,0,41.16,6.4,56.13,23.15,10.1,11.29,16.08,24.44,16.11,39.76.09,39.77.6,79.55-.3,119.29a53.36,53.36,0,0,1-8.63,27.59c-12.63,18.39-8.91,35.11,1.94,51.65,21.61,33,62.24,50.3,99.44,43,41.83-8.21,71.27-36.66,78.73-78.06,13-72.61,25.36-145.35,37.79-218.06,5.24-30.62,10-61.32,14.94-92,.33-2,.28-4.07.44-6.84h-113c-.14,3.05-.41,6.25-.41,9.4-.13,99.26-.37,198.54-.1,297.78,0,4.08.08,11,.08,11l-11.85.17c-7.82.13-23.73-.13-23.73-.13V447.49H451V413.73H703.9c8.65,0,11.92,2.37,13.84,11.42q29.73,140.21,60.68,280.19c6,27.49-7.44,52.56-33.7,61.09-26.87,8.67-56.51-3.06-64.79-27.82-4.13-12.38-3.37-26.41-4.56-39.71l-.4-4,33.36-.1,1.26,9.71c1,5.87.88,11.92,1.74,17.83,1.44,9.8,8,15.27,16.22,14,10.73-1.7,19.47-11.2,17.46-20q-5.88-25.74-13-51.22c-.62-2.22-4.4-5-6.75-5.09-20.9-.32-41.81,0-62.72,0-5.41,0-6.11,3.25-6.81,7.4-5.81,34.15-11.4,68.35-17.73,102.41-11.3,60.7-57.48,103.53-118.22,110.29C458.06,887,399.27,848.31,381,788.73c-4.75-15.49-4.75-15.47-20.71-15.53-72-.3-144-.9-215.95-.59-11.2,0-15.34-4.86-17.9-14-8.62-30.77-17.84-61.38-25.88-92.29-20.42-78.63-40.34-157.4-60.44-236.11-1.16-4.55-2-11.47-3.31-17.08l33.19.1c18,68.66,37.41,141.12,55.28,209.91l10.18,35.07-3.26-245.15,35.44.27v25.34s-.52,191.94-1,287.92c0,2.92.31,10.44.31,10.44s6.64-.16,10.11,0c11.81-.19,21.38,0,32.79.06,3.87,0,12.16-.32,12.16-.32s-.1-9.41-.12-12.91q-.33-135-.27-270a25.92,25.92,0,0,0-.12-5c-12.15,0-24.81-.23-36.94.3l-.32-36.1h114.2l-.05,35.41Zm408.71,175h57.9c-10.88-50.42-22.6-100.39-33.32-150Z"/><path class="cls-1" d="M434.89,349.48c22.8,0,43.65-.11,64.51.07,5.88,0,6.81-2.92,6.72-7.87-.28-15.84-.35-31.68-.35-47.52q.08-141.24.21-282.49C506,9,506,5.4,506,2c3.31-.28,5.84.32,8.41.3C533,2.15,551.47,2,570,2c54.08,0,92.08,34.7,93.37,88.85q2.48,105.32.42,210.76c-.67,32.06-21.13,54.32-47.85,70.33a92.8,92.8,0,0,1-48.62,13.3c-115-.1-307.48-.45-422.4-.25-3.68,0-10,.13-10,.13v-9.84l.21-24.93,101.71-.12q27.33,0,54.66-.07c3.16,0,6.33-.28,11.55-.54-3.35-4.37-5.53-7.37-7.87-10.24-15.43-19-23.23-40.3-22.93-65.23.73-59.19,1.32-118.39.17-177.56-.85-43.46,28.5-78.66,66-91.63s77.69-.06,103.85,33C456,55.48,463.4,75.23,463.29,97.64c-.3,62.17-1.13,124.35-.58,186.52.21,23.1-7.81,41.81-22.47,58.6C438.7,344.44,437.36,346.34,434.89,349.48Zm-7.62-160.4h.18q0-47.06,0-94.11c0-12.09-3.94-22.76-10.63-32.67C402,40.33,376,30.42,351.08,37.38,325.16,44.61,308.32,66,307.69,93.29c-.5,22.11-.4,44.22-.43,66.33-.06,38.53.08,77.08,0,115.62-.07,25.51,10.74,45.36,32.34,58.16,36.22,21.48,86.28-6.23,87.48-48.42.91-32,.19-63.93.19-95.9ZM541.06,35.5V48.36q0,73.07-.08,146.12c0,48.71.16,97.41-.06,146.12,0,6.6,1.81,9.25,8.62,8.7,8-.64,16.13-.15,24.14-.84,31.77-2.7,55.82-28.3,55.64-58.28-.36-57.65-.39-115.32-.6-173,0-11,.78-22.22-.72-33.07C624.94,62.31,613.67,45.26,591.65,40,575.75,36.28,558.8,36.92,541.06,35.5Z"/><path class="cls-1" d="M230.68,238.63s-.65,33.74-.93,41.65c.07,44.65-37.46,94-88.84,104.39C71.27,398.8,7.33,352.32,2.84,281.35-.39,230.44,1,179.16,1.34,128.11c.14-18.32,1.15-37.29,5.66-55C17.21,33.2,54.66,3.56,95.39,2.46c41.75-1.12,81.21-.64,123-.74l9.89-.09V35.79l-120.71,2c-18.47-.07-35.38,3.65-49.73,16.44-15.09,13.45-20,30.7-20.13,49.88-.26,55.59-.49,111.19-.33,166.78.09,32.58,14.14,57.11,43.26,73,39.71,21.66,107.41-.83,113.68-60.2,1-9.16,2.42-45.24,2.42-45.24Z"/><path class="cls-1" d="M670.7,345.9c13.56-15.38,26.73-30.18,37.55-47.25,49.49-78.2,45-172.32-10.18-247.14-5.81-7.87-12-15.49-18.82-24.36,9.16-5.39,17.48-10.55,26.12-15,1.37-.72,5.09,1,6.45,2.62,65.86,77.14,73.53,201,48.19,259.32s-69.7,99.13-69.7,99.13Z"/><rect class="cls-1" x="0.73" y="840.38" width="356.33" height="40.47"/><path class="cls-1" d="M112.21,759.09C82,761.69,58,787.27,58,817.05a58,58,0,0,0-58-58L1,759a58.24,58.24,0,0,0,53.15-57.86,58,58,0,0,0,58,57.94"/></g></g></g></svg>