<svg xmlns="http://www.w3.org/2000/svg" viewBox="0 0 1040.49 224.28"><defs><style>.cls-1{fill:#fff;}</style></defs><g id="Layer_2" data-name="Layer 2"><g id="Layer_1-2" data-name="Layer 1"><g id="Layer_1-2-2" data-name="Layer 1-2"><path class="cls-1" d="M63.81,112.46c.07,1.32,0,2.43,0,3.52q.06,31.8.16,63.58c0,1.81,0,4.85,0,4.85a29,29,0,0,1,3.33.11c2.55,0,4.84,0,7.33,0,1.65,0,2.71-.11,2.71-.11s.06-1.71,0-2.68c-.09-4.16,0-8.33,0-12.49s0-11.45,0-15.62l8.57-.11c0,2.38,0,7.41,0,9.79,0,6.25,0,12.49,0,18.74v1a1.1,1.1,0,0,0,1.1,1.1h0l.73,0c2.59,0,5.18-.09,7.76-.22a2.83,2.83,0,0,0,2.8-2.68,21.81,21.81,0,0,0,.31-3.32q0-12.49-.17-25c0-6.28-2.42-8.81-8.77-8.91-3.33-.05-6.29-.64-8.71-3.15a10.18,10.18,0,0,1-3.24-7.11c0-6.47-.07-12.94,0-19.41a9.23,9.23,0,0,1,5-8.42c6.36-3.32,12.94-3.76,19.37-.2a11.22,11.22,0,0,1,6,10.26c0,2.9,0,7.38.11,10.28l-8.6,0c0-2.53,0-7-.07-9.48s-1.26-4.12-3.88-4.63a15.37,15.37,0,0,0-3.31-.34c-4.75.09-6.36,1.78-6.33,6.5,0,4.54,0,9.07.07,13.61,0,2.78.38,3.23,3.24,3.23,5.46,0,10.23,1.6,14,5.76a14.55,14.55,0,0,1,4,9.89c0,9.89.15,19.78-.07,29.67a13.22,13.22,0,0,1-2.15,6.86c-3.14,4.57-2.21,8.73.49,12.84a24.55,24.55,0,0,0,24.73,10.7c10.4-2,17.72-9.12,19.58-19.41,3.24-18.06,6.3-36.15,9.4-54.24,1.3-7.61,2.49-15.24,3.71-22.87.08-.51.07-1,.11-1.7H135.07c0,.76-.1,1.55-.1,2.34,0,24.68-.09,49.37,0,74.06,0,1,0,2.74,0,2.74l-2.94,0c-2,0-5.9,0-5.9,0V112.23H112.18v-8.4h62.88c2.16,0,3,.59,3.44,2.84q7.41,34.87,15.1,69.68c1.5,6.84-1.85,13.08-8.38,15.2-6.69,2.16-14.06-.76-16.12-6.92-1-3.08-.84-6.57-1.13-9.88l-.1-1,8.3,0,.31,2.41c.25,1.46.22,3,.43,4.44.36,2.44,2,3.8,4,3.48,2.66-.42,4.84-2.79,4.34-5q-1.47-6.41-3.23-12.74a2.28,2.28,0,0,0-1.68-1.26c-5.2-.08-10.4,0-15.6,0-1.35,0-1.52.8-1.7,1.84-1.44,8.49-2.83,17-4.41,25.47-2.81,15.09-14.29,25.75-29.4,27.43A32.57,32.57,0,0,1,94.74,197.1c-1.18-3.86-1.18-3.85-5.15-3.87-17.9-.07-35.8-.22-53.7-.15-2.79,0-3.82-1.2-4.46-3.47C29.29,182,27,174.34,25,166.66c-5.08-19.56-10-39.15-15-58.73-.29-1.13-.51-2.85-.83-4.24l8.26,0c4.48,17.08,9.3,35.1,13.75,52.21l2.53,8.72-.81-61,8.81.07V110s-.13,47.74-.25,71.6c0,.73.07,2.6.07,2.6s1.66,0,2.52,0c2.93-.05,5.31,0,8.15,0,1,0,3-.08,3-.08s0-2.34,0-3.21q-.09-33.58-.07-67.15a6.43,6.43,0,0,0,0-1.24c-3,0-6.17-.06-9.19.07l-.08-9H74.21l0,8.8ZM165.46,156h14.4c-2.71-12.54-5.62-25-8.29-37.32Z"/><path class="cls-1" d="M108.16,87.85c5.67,0,10.86,0,16,0,1.47,0,1.7-.73,1.68-2-.08-3.94-.09-7.88-.09-11.82q0-35.13,0-70.25c0-.66,0-1.56,0-2.41a18.92,18.92,0,0,1,2.09.08c4.61,0,9.21-.08,13.82-.08,13.45,0,22.9,8.63,23.22,22.1q.61,26.19.1,52.42c-.16,8-5.25,13.51-11.9,17.49a23.09,23.09,0,0,1-12.09,3.31c-28.59,0-76.47-.11-105-.06-.92,0-2.49,0-2.49,0V94.27l.05-6.2,25.3,0q6.79,0,13.59,0c.79,0,1.58-.07,2.88-.13-.84-1.09-1.38-1.83-2-2.55a24.32,24.32,0,0,1-5.7-16.22c.18-14.72.32-29.45,0-44.16C67.54,14.15,74.84,5.4,84.16,2.17s19.32,0,25.82,8.22a23.13,23.13,0,0,1,5.24,14.83c-.07,15.46-.28,30.92-.14,46.39a21,21,0,0,1-5.59,14.57C109.11,86.6,108.77,87.07,108.16,87.85ZM106.26,48h0q0-11.7,0-23.41a14.25,14.25,0,0,0-2.64-8.12,14.8,14.8,0,0,0-16.35-6.2,14.38,14.38,0,0,0-10.8,13.91c-.12,5.49-.1,11-.1,16.49,0,9.59,0,19.17,0,28.76,0,6.34,2.67,11.28,8,14.46,9,5.34,21.46-1.55,21.76-12,.22-8,0-15.9,0-23.85Zm28.3-38.2V13q0,18.18,0,36.34c0,12.12,0,24.23,0,36.34,0,1.64.45,2.3,2.14,2.17,2-.16,4,0,6-.21,7.9-.67,13.88-7,13.84-14.5-.09-14.34-.1-28.68-.15-43a60.77,60.77,0,0,0-.18-8.22c-.76-5.43-3.57-9.67-9-11C143.19,10,139,10.12,134.56,9.76Z"/><path class="cls-1" d="M57.37,60.28s-.16,8.39-.23,10.36c0,11.11-9.32,23.37-22.09,26-17.32,3.52-33.23-8-34.34-25.69C-.1,58.25.25,45.49.33,32.8A58,58,0,0,1,1.74,19.12a23.8,23.8,0,0,1,22-17.57c10.39-.28,20.2-.16,30.6-.19l2.46,0V9.83l-30,.51c-4.6,0-8.8.91-12.37,4.09-3.75,3.34-5,7.63-5,12.4-.06,13.83-.12,27.66-.08,41.48,0,8.11,3.52,14.21,10.76,18.15,9.87,5.39,26.71-.2,28.27-15,.26-2.28.6-11.25.6-11.25Z"/><path class="cls-1" d="M166.81,87a93,93,0,0,0,9.33-11.75c12.31-19.45,11.18-42.86-2.53-61.47-1.44-2-3-3.85-4.68-6,2.28-1.34,4.35-2.63,6.5-3.74.34-.18,1.26.25,1.6.65,16.38,19.18,18.29,50,12,64.49a81.75,81.75,0,0,1-17.34,24.66Z"/><rect class="cls-1" x="0.18" y="209.94" width="88.62" height="10.07"/><path class="cls-1" d="M27.91,189.72a14.74,14.74,0,0,0-13.48,14.42A14.43,14.43,0,0,0,0,189.72l.25,0a14.47,14.47,0,0,0,13.22-14.39A14.43,14.43,0,0,0,27.9,189.72"/></g><path class="cls-1" d="M310.79,143.39a40.27,40.27,0,0,1-21.35,21.36,39.07,39.07,0,0,1-15.61,3.13H262.22a39.42,39.42,0,0,1-15.66-3.13,40.09,40.09,0,0,1-21.42-21.36,39.2,39.2,0,0,1-3.13-15.6V40.09a39.23,39.23,0,0,1,3.13-15.6A40.09,40.09,0,0,1,246.56,3.13,39.42,39.42,0,0,1,262.22,0h11.61a39.07,39.07,0,0,1,15.61,3.13,40.27,40.27,0,0,1,21.35,21.36,39.07,39.07,0,0,1,3.14,15.6V46.7L299.23,49V40.09a25.28,25.28,0,0,0-2.05-10.19,26.22,26.22,0,0,0-13.84-13.84,25.24,25.24,0,0,0-10.19-2H262.9a25.28,25.28,0,0,0-10.19,2,27.27,27.27,0,0,0-8.32,5.58,26,26,0,0,0-5.64,8.26,25.44,25.44,0,0,0-2,10.19v87.7a25.44,25.44,0,0,0,2,10.19,26.66,26.66,0,0,0,14,14A25.45,25.45,0,0,0,262.9,154h10.25a25.41,25.41,0,0,0,10.19-2.05,26,26,0,0,0,8.26-5.64,27.09,27.09,0,0,0,5.58-8.32,25.28,25.28,0,0,0,2.05-10.19v-8.88l14.7,2.39v6.49A39,39,0,0,1,310.79,143.39Z"/><path class="cls-1" d="M417.17,146.92a34.18,34.18,0,0,1-18.28,18.28,33.49,33.49,0,0,1-13.33,2.68h-9.33a33.45,33.45,0,0,1-13.33-2.68,34.18,34.18,0,0,1-18.28-18.28,33.41,33.41,0,0,1-2.68-13.32V81a33.49,33.49,0,0,1,2.68-13.33A34.27,34.27,0,0,1,362.9,49.37a33.62,33.62,0,0,1,13.33-2.67h9.33a33.65,33.65,0,0,1,13.33,2.67,34.27,34.27,0,0,1,18.28,18.28A33.66,33.66,0,0,1,419.85,81V133.6A33.58,33.58,0,0,1,417.17,146.92ZM405.84,80.18a19.62,19.62,0,0,0-1.6-7.91,20.37,20.37,0,0,0-4.32-6.44,20.68,20.68,0,0,0-6.44-4.33,19.87,19.87,0,0,0-7.92-1.59h-9.33a19.87,19.87,0,0,0-7.92,1.59,20.68,20.68,0,0,0-6.44,4.33,20.37,20.37,0,0,0-4.32,6.44,19.62,19.62,0,0,0-1.6,7.91V134.4a19.66,19.66,0,0,0,1.6,7.91,20.06,20.06,0,0,0,10.76,10.76,19.7,19.7,0,0,0,7.92,1.6h9.33a19.7,19.7,0,0,0,7.92-1.6,20.06,20.06,0,0,0,10.76-10.76,19.66,19.66,0,0,0,1.6-7.91Z"/><path class="cls-1" d="M521.1,165.6l-7.75-11.84a35.09,35.09,0,0,1-12,10.31,33,33,0,0,1-15.71,3.81h-3.53a33.49,33.49,0,0,1-13.33-2.68,34.18,34.18,0,0,1-18.28-18.28,33.58,33.58,0,0,1-2.68-13.32V81a33.66,33.66,0,0,1,2.68-13.33,34.27,34.27,0,0,1,18.28-18.28,33.65,33.65,0,0,1,13.33-2.67h3.53a33.58,33.58,0,0,1,26.08,12.07V2.28h14V165.6Zm-9.34-85.42a19.79,19.79,0,0,0-1.59-7.91A20.18,20.18,0,0,0,499.4,61.5a19.86,19.86,0,0,0-7.91-1.59h-9.34a19.87,19.87,0,0,0-7.92,1.59,20.51,20.51,0,0,0-6.43,4.33,20.23,20.23,0,0,0-4.33,6.44,19.62,19.62,0,0,0-1.6,7.91V134.4a19.66,19.66,0,0,0,1.6,7.91,20.15,20.15,0,0,0,10.76,10.76,19.7,19.7,0,0,0,7.92,1.6h9.34a19.69,19.69,0,0,0,7.91-1.6,20.37,20.37,0,0,0,6.44-4.32,20.68,20.68,0,0,0,4.33-6.44,19.82,19.82,0,0,0,1.59-7.91Z"/><path class="cls-1" d="M647.07,129.73l.45,6,.46-6L684.2,2.28h15.14L651.28,165.6h-7.74L595.7,2.28H611Z"/><path class="cls-1" d="M719.16,21V2.28h16.29V21ZM720.3,165.6V49h14V165.6Z"/><path class="cls-1" d="M847.18,136a29.19,29.19,0,0,1-2.85,12.93A31.12,31.12,0,0,1,836.59,159a36.19,36.19,0,0,1-11.34,6.55,39.41,39.41,0,0,1-13.49,2.33h-9.34a34.71,34.71,0,0,1-13.5-2.68,35.81,35.81,0,0,1-19-18.28A31.34,31.34,0,0,1,767,133.6v-4.67l14-2.28v7.75a18.09,18.09,0,0,0,1.76,7.91,21,21,0,0,0,4.73,6.44,22.66,22.66,0,0,0,6.83,4.32,20.92,20.92,0,0,0,8.09,1.6h9.34a26.21,26.21,0,0,0,8.08-1.25,22.64,22.64,0,0,0,6.9-3.59,17.6,17.6,0,0,0,4.78-5.64,15.78,15.78,0,0,0,1.76-7.52,17.79,17.79,0,0,0-2.73-10.25,22.64,22.64,0,0,0-7.23-6.66,47.35,47.35,0,0,0-10.25-4.44q-5.76-1.77-11.79-3.53t-11.79-4.05a37.86,37.86,0,0,1-10.25-6A27.36,27.36,0,0,1,772,92.48a31.48,31.48,0,0,1-2.73-13.89A30.26,30.26,0,0,1,772,65.66a31.14,31.14,0,0,1,7.4-10.08A33.85,33.85,0,0,1,790.29,49a37.53,37.53,0,0,1,13.27-2.33h8.2a33.61,33.61,0,0,1,13.32,2.67,34.18,34.18,0,0,1,18.28,18.28A33.49,33.49,0,0,1,846,81v.45l-14,2.28V80.18a19.79,19.79,0,0,0-1.59-7.91A20.18,20.18,0,0,0,819.67,61.5a19.79,19.79,0,0,0-7.91-1.59h-8.2a24.71,24.71,0,0,0-7.92,1.25,19.29,19.29,0,0,0-6.43,3.59,16.76,16.76,0,0,0-5.93,13.15A16.57,16.57,0,0,0,786,87.76a22.94,22.94,0,0,0,7.23,6.43,48.81,48.81,0,0,0,10.25,4.39c3.83,1.17,7.75,2.39,11.73,3.64s7.9,2.68,11.73,4.27a39.78,39.78,0,0,1,10.25,6.15,28.08,28.08,0,0,1,7.24,9.4A31.88,31.88,0,0,1,847.18,136Z"/><path class="cls-1" d="M916.54,165.6a30.38,30.38,0,0,1-12-2.39,30,30,0,0,1-9.79-6.61,32.32,32.32,0,0,1-6.61-9.79,29.48,29.48,0,0,1-2.45-12V62.3H864.72V49h20.95V21l14-2.28V49H929.3V62.3H899.68v73.23a16.3,16.3,0,0,0,1.31,6.55,16.81,16.81,0,0,0,8.94,8.89,16.77,16.77,0,0,0,6.61,1.31H929.3V165.6Z"/><path class="cls-1" d="M1028.27,165.6,1020.53,154a36.45,36.45,0,0,1-12,10.08,33,33,0,0,1-15.72,3.81h-3.53A33.49,33.49,0,0,1,976,165.2a34.18,34.18,0,0,1-18.28-18.28A33.57,33.57,0,0,1,955,133.6v-1.14a33.65,33.65,0,0,1,2.67-13.33A34.27,34.27,0,0,1,976,100.85a33.65,33.65,0,0,1,13.33-2.67h29.61v-18a19.79,19.79,0,0,0-1.59-7.91,20.18,20.18,0,0,0-10.77-10.77,19.79,19.79,0,0,0-7.91-1.59h-8.2a19.87,19.87,0,0,0-7.92,1.59,20.51,20.51,0,0,0-6.43,4.33,20.23,20.23,0,0,0-4.33,6.44,19.62,19.62,0,0,0-1.6,7.91V84.4l-14-2.28V81a33.65,33.65,0,0,1,2.67-13.33,34.27,34.27,0,0,1,18.28-18.28,33.65,33.65,0,0,1,13.33-2.67h8.2A33.57,33.57,0,0,1,1012,49.37a34.18,34.18,0,0,1,18.28,18.28A33.49,33.49,0,0,1,1032.94,81V165.6Zm-9.34-56.49H989.32a20,20,0,0,0-14.35,6,21.2,21.2,0,0,0-4.33,6.49,19.88,19.88,0,0,0-1.6,7.92v4.9a19.83,19.83,0,0,0,1.6,7.91,20.15,20.15,0,0,0,10.76,10.76,19.7,19.7,0,0,0,7.92,1.6h9.34a19.62,19.62,0,0,0,7.91-1.6,20.37,20.37,0,0,0,6.44-4.32,20.68,20.68,0,0,0,4.33-6.44,19.82,19.82,0,0,0,1.59-7.91Z"/><path class="cls-1" d="M235.52,207.17v10.71h-2V207.2l-5.8-11.7h2.17l4.61,9.3,4.6-9.3h2.17Z"/><path class="cls-1" d="M259.06,215.32a4.72,4.72,0,0,1-2.51,2.51,4.67,4.67,0,0,1-1.83.36h-1.28a4.65,4.65,0,0,1-1.82-.36,4.72,4.72,0,0,1-2.51-2.51,4.65,4.65,0,0,1-.36-1.82v-7.22a4.65,4.65,0,0,1,.36-1.82,4.72,4.72,0,0,1,1-1.5,4.83,4.83,0,0,1,1.5-1,4.66,4.66,0,0,1,1.82-.37h1.28a4.67,4.67,0,0,1,1.83.37,4.83,4.83,0,0,1,1.5,1,4.72,4.72,0,0,1,1,1.5,4.65,4.65,0,0,1,.36,1.82v7.22A4.65,4.65,0,0,1,259.06,215.32Zm-1.56-9.15a2.64,2.64,0,0,0-.22-1.08,2.67,2.67,0,0,0-.59-.88,2.86,2.86,0,0,0-.88-.6,2.82,2.82,0,0,0-1.09-.21h-1.28a2.81,2.81,0,0,0-1.08.21,2.86,2.86,0,0,0-1.48,1.48,2.81,2.81,0,0,0-.21,1.08v7.43a2.82,2.82,0,0,0,.21,1.09,2.86,2.86,0,0,0,1.48,1.48,2.81,2.81,0,0,0,1.08.21h1.28a2.82,2.82,0,0,0,1.09-.21,2.86,2.86,0,0,0,.88-.6,2.79,2.79,0,0,0,.81-2Z"/><path class="cls-1" d="M279.5,217.88l-1.06-1.62a4.85,4.85,0,0,1-1.64,1.41,4.47,4.47,0,0,1-2.15.52h-.49a4.65,4.65,0,0,1-1.82-.36,4.72,4.72,0,0,1-2.51-2.51,4.65,4.65,0,0,1-.36-1.82V201.9h1.92v11.7a2.82,2.82,0,0,0,.21,1.09,2.86,2.86,0,0,0,1.48,1.48,2.81,2.81,0,0,0,1.08.21h1.28a2.82,2.82,0,0,0,1.09-.21,2.86,2.86,0,0,0,.88-.6,2.79,2.79,0,0,0,.81-2V201.9h1.92v16Z"/><path class="cls-1" d="M294.88,203.72a2.82,2.82,0,0,0-1.08.22,2.86,2.86,0,0,0-1.48,1.48,2.82,2.82,0,0,0-.22,1.08v11.38h-1.92v-16h.64l1.05,1.62a4.89,4.89,0,0,1,1.65-1.41,4.54,4.54,0,0,1,2.16-.53h1.12v2.14Z"/><path class="cls-1" d="M331.6,214.84a5.68,5.68,0,0,1-1.18,1.75,5.38,5.38,0,0,1-1.75,1.17,5.27,5.27,0,0,1-2.13.43h-1.6a5.31,5.31,0,0,1-2.14-.43,5.42,5.42,0,0,1-1.76-1.17,5.68,5.68,0,0,1-1.18-1.75,5.49,5.49,0,0,1-.43-2.14v-12a5.49,5.49,0,0,1,.43-2.14,5.68,5.68,0,0,1,1.18-1.75,5.61,5.61,0,0,1,1.76-1.18,5.49,5.49,0,0,1,2.14-.43h1.6a5.44,5.44,0,0,1,2.13.43,5.57,5.57,0,0,1,1.75,1.18,5.68,5.68,0,0,1,1.18,1.75,5.31,5.31,0,0,1,.43,2.14v12A5.31,5.31,0,0,1,331.6,214.84ZM330,200.68a3.61,3.61,0,0,0-.28-1.4,3.71,3.71,0,0,0-.77-1.13,3.51,3.51,0,0,0-1.13-.76,3.44,3.44,0,0,0-1.4-.29H325a3.44,3.44,0,0,0-1.4.29,3.67,3.67,0,0,0-1.14.76,3.39,3.39,0,0,0-.77,1.13,3.43,3.43,0,0,0-.28,1.4v12a3.43,3.43,0,0,0,.28,1.4,3.53,3.53,0,0,0,.77,1.14,3.88,3.88,0,0,0,1.14.77,3.43,3.43,0,0,0,1.4.28h1.4a3.43,3.43,0,0,0,1.4-.28,3.71,3.71,0,0,0,1.13-.77,3.88,3.88,0,0,0,.77-1.14,3.61,3.61,0,0,0,.28-1.4Z"/><path class="cls-1" d="M351.16,217.88V206.17a2.79,2.79,0,0,0-.81-2,2.91,2.91,0,0,0-.89-.6,2.77,2.77,0,0,0-1.08-.21H347.1a2.82,2.82,0,0,0-1.09.21,3,3,0,0,0-.88.6,2.67,2.67,0,0,0-.59.88,2.64,2.64,0,0,0-.22,1.08v11.71H342.4v-16H343l1,1.62a4.76,4.76,0,0,1,1.64-1.41,4.55,4.55,0,0,1,2.17-.53h.48a4.75,4.75,0,0,1,1.83.37,4.68,4.68,0,0,1,1.49,1,4.56,4.56,0,0,1,1,1.5,4.49,4.49,0,0,1,.37,1.82v11.6Z"/><path class="cls-1" d="M373.43,215.32a4.67,4.67,0,0,1-1,1.5,4.64,4.64,0,0,1-3.32,1.37h-1.28a4.67,4.67,0,0,1-1.83-.36,4.66,4.66,0,0,1-2.5-2.51,4.49,4.49,0,0,1-.37-1.82v-7.22a4.49,4.49,0,0,1,.37-1.82,4.69,4.69,0,0,1,1-1.5,4.83,4.83,0,0,1,1.5-1,4.67,4.67,0,0,1,1.83-.37h1.28a4.66,4.66,0,0,1,1.82.37,4.61,4.61,0,0,1,1.5,1,4.56,4.56,0,0,1,1,1.5,4.66,4.66,0,0,1,.37,1.82v3.77H365v3.55a2.79,2.79,0,0,0,.81,2,3,3,0,0,0,.88.6,2.82,2.82,0,0,0,1.09.21h1.28a2.77,2.77,0,0,0,1.08-.21,2.91,2.91,0,0,0,.89-.6,3,3,0,0,0,.59-.88,2.83,2.83,0,0,0,.22-1.09v-1.06l1.92.32v.64A4.66,4.66,0,0,1,373.43,215.32Zm-1.55-9.15a2.82,2.82,0,0,0-.22-1.08,3,3,0,0,0-.59-.88,2.91,2.91,0,0,0-.89-.6,2.77,2.77,0,0,0-1.08-.21h-1.28a2.82,2.82,0,0,0-1.09.21,3,3,0,0,0-.88.6,2.67,2.67,0,0,0-.59.88,2.64,2.64,0,0,0-.22,1.08v2.38h6.84Z"/><path class="cls-1" d="M383.51,208.09v-1.81h6v1.81Z"/><path class="cls-1" d="M412.13,212.7a5,5,0,0,1-.46,2.14,6,6,0,0,1-1.23,1.75,5.71,5.71,0,0,1-1.8,1.17,5.44,5.44,0,0,1-2.16.43h-1.61a5.44,5.44,0,0,1-2.16-.43,5.71,5.71,0,0,1-1.8-1.17,6,6,0,0,1-1.23-1.75,5,5,0,0,1-.46-2.14v-.89l2-.33v1.22a3.3,3.3,0,0,0,.31,1.4,3.68,3.68,0,0,0,.82,1.14,4,4,0,0,0,1.19.77,3.65,3.65,0,0,0,1.43.28h1.41a3.63,3.63,0,0,0,1.42-.28,4.08,4.08,0,0,0,1.18-.77,3.68,3.68,0,0,0,.82-1.14,3.3,3.3,0,0,0,.31-1.4V212a3.64,3.64,0,0,0-.46-1.92,4.27,4.27,0,0,0-1.2-1.31,8.23,8.23,0,0,0-1.69-.91l-1.95-.75c-.66-.25-1.31-.52-1.94-.83a6.75,6.75,0,0,1-1.69-1.13,5,5,0,0,1-1.2-1.66,5.62,5.62,0,0,1-.46-2.42v-.42a5.49,5.49,0,0,1,.43-2.14,5.68,5.68,0,0,1,1.18-1.75,5.61,5.61,0,0,1,1.76-1.18,5.49,5.49,0,0,1,2.14-.43h1.44a5.49,5.49,0,0,1,2.14.43,5.68,5.68,0,0,1,1.75,1.18,5.49,5.49,0,0,1,1.17,1.75,5.31,5.31,0,0,1,.43,2.14v.58l-2,.32v-.9a3.43,3.43,0,0,0-.28-1.4,3.61,3.61,0,0,0-1.9-1.89,3.43,3.43,0,0,0-1.39-.29h-1.25a3.44,3.44,0,0,0-1.4.29,3.67,3.67,0,0,0-1.14.76,3.39,3.39,0,0,0-.77,1.13,3.43,3.43,0,0,0-.28,1.4v.42a3.4,3.4,0,0,0,.45,1.81,4.23,4.23,0,0,0,1.2,1.26,8.47,8.47,0,0,0,1.69.9l1.95.78c.66.27,1.31.56,1.94.88a7.54,7.54,0,0,1,1.7,1.17,5.34,5.34,0,0,1,1.2,1.69,5.94,5.94,0,0,1,.45,2.44Z"/><path class="cls-1" d="M427.84,217.88a4.19,4.19,0,0,1-1.65-.33,4.11,4.11,0,0,1-1.34-.9,4.6,4.6,0,0,1-.91-1.34,4.11,4.11,0,0,1-.33-1.64v-9.95h-2.87V201.9h2.87v-3.84l1.92-.31v4.15h4.06v1.82h-4.06v10a2.25,2.25,0,0,0,.67,1.62,2.25,2.25,0,0,0,1.64.68h1.75v1.82Z"/><path class="cls-1" d="M449.63,215.32a4.72,4.72,0,0,1-2.51,2.51,4.65,4.65,0,0,1-1.82.36H444a4.67,4.67,0,0,1-1.83-.36,4.72,4.72,0,0,1-2.51-2.51,4.65,4.65,0,0,1-.36-1.82v-7.22a4.65,4.65,0,0,1,.36-1.82,4.72,4.72,0,0,1,1-1.5,4.83,4.83,0,0,1,1.5-1,4.67,4.67,0,0,1,1.83-.37h1.28a4.66,4.66,0,0,1,1.82.37,4.83,4.83,0,0,1,1.5,1,4.72,4.72,0,0,1,1,1.5,4.65,4.65,0,0,1,.36,1.82v7.22A4.65,4.65,0,0,1,449.63,215.32Zm-1.56-9.15a2.81,2.81,0,0,0-.21-1.08,2.86,2.86,0,0,0-1.48-1.48,2.81,2.81,0,0,0-1.08-.21H444a2.82,2.82,0,0,0-1.09.21,2.86,2.86,0,0,0-.88.6,2.67,2.67,0,0,0-.59.88,2.64,2.64,0,0,0-.22,1.08v7.43a2.79,2.79,0,0,0,.81,2,2.86,2.86,0,0,0,.88.6,2.82,2.82,0,0,0,1.09.21h1.28a2.81,2.81,0,0,0,1.08-.21,2.86,2.86,0,0,0,1.48-1.48,2.82,2.82,0,0,0,.21-1.09Z"/><path class="cls-1" d="M470.35,215.32a4.72,4.72,0,0,1-2.51,2.51,4.65,4.65,0,0,1-1.82.36h-.49a4.64,4.64,0,0,1-2-.43,4.57,4.57,0,0,1-1.57-1.22v7.74H460V201.9h.64l1,1.62a4.89,4.89,0,0,1,1.65-1.41,4.54,4.54,0,0,1,2.16-.53H466a4.66,4.66,0,0,1,1.82.37,4.83,4.83,0,0,1,1.5,1,4.72,4.72,0,0,1,1,1.5,4.65,4.65,0,0,1,.36,1.82v7.22A4.65,4.65,0,0,1,470.35,215.32Zm-1.56-9.15a2.81,2.81,0,0,0-.21-1.08,2.86,2.86,0,0,0-1.48-1.48,2.81,2.81,0,0,0-1.08-.21h-1.28a2.82,2.82,0,0,0-1.09.21,2.86,2.86,0,0,0-.88.6,2.67,2.67,0,0,0-.59.88,2.64,2.64,0,0,0-.22,1.08v7.43a2.79,2.79,0,0,0,.81,2,2.86,2.86,0,0,0,.88.6,2.82,2.82,0,0,0,1.09.21H466a2.81,2.81,0,0,0,1.08-.21,2.86,2.86,0,0,0,1.48-1.48,2.82,2.82,0,0,0,.21-1.09Z"/><path class="cls-1" d="M507.22,212.7a5,5,0,0,1-.46,2.14,6,6,0,0,1-1.23,1.75,5.71,5.71,0,0,1-1.8,1.17,5.44,5.44,0,0,1-2.16.43H500a5.44,5.44,0,0,1-2.16-.43,5.71,5.71,0,0,1-1.8-1.17,6,6,0,0,1-1.23-1.75,5,5,0,0,1-.46-2.14v-.89l2-.33v1.22a3.29,3.29,0,0,0,.3,1.4,3.85,3.85,0,0,0,.82,1.14,4,4,0,0,0,1.19.77,3.68,3.68,0,0,0,1.43.28h1.41a3.6,3.6,0,0,0,1.42-.28,4.08,4.08,0,0,0,1.18-.77,3.68,3.68,0,0,0,.82-1.14,3.15,3.15,0,0,0,.31-1.4V212a3.64,3.64,0,0,0-.46-1.92,4.27,4.27,0,0,0-1.2-1.31,8.23,8.23,0,0,0-1.69-.91l-1.94-.75a21.14,21.14,0,0,1-1.95-.83,6.75,6.75,0,0,1-1.69-1.13,5,5,0,0,1-1.2-1.66,5.62,5.62,0,0,1-.46-2.42v-.42a5.49,5.49,0,0,1,.43-2.14,5.68,5.68,0,0,1,1.18-1.75,5.61,5.61,0,0,1,1.76-1.18,5.49,5.49,0,0,1,2.14-.43h1.44a5.49,5.49,0,0,1,2.14.43,5.57,5.57,0,0,1,1.75,1.18,5.68,5.68,0,0,1,1.18,1.75,5.49,5.49,0,0,1,.43,2.14v.58l-2,.32v-.9a3.43,3.43,0,0,0-.28-1.4,3.68,3.68,0,0,0-.76-1.13,3.56,3.56,0,0,0-1.14-.76,3.39,3.39,0,0,0-1.39-.29h-1.25a3.44,3.44,0,0,0-1.4.29,3.67,3.67,0,0,0-1.14.76,3.54,3.54,0,0,0-.77,1.13,3.43,3.43,0,0,0-.28,1.4v.42a3.4,3.4,0,0,0,.45,1.81,4.23,4.23,0,0,0,1.2,1.26,8.29,8.29,0,0,0,1.7.9l1.94.78c.67.27,1.31.56,1.94.88a7.54,7.54,0,0,1,1.7,1.17,5.19,5.19,0,0,1,1.2,1.69,5.94,5.94,0,0,1,.45,2.44Z"/><path class="cls-1" d="M527.42,215.32a4.83,4.83,0,0,1-1,1.5,4.72,4.72,0,0,1-1.5,1,4.65,4.65,0,0,1-1.82.36h-1.28a4.67,4.67,0,0,1-1.83-.36,4.72,4.72,0,0,1-2.51-2.51,4.65,4.65,0,0,1-.36-1.82v-7.22a4.65,4.65,0,0,1,.36-1.82,4.72,4.72,0,0,1,1-1.5,4.83,4.83,0,0,1,1.5-1,4.67,4.67,0,0,1,1.83-.37h1.28a4.66,4.66,0,0,1,1.82.37,4.72,4.72,0,0,1,2.51,2.51,4.66,4.66,0,0,1,.37,1.82v7.22A4.66,4.66,0,0,1,527.42,215.32Zm-1.55-9.15a2.82,2.82,0,0,0-.22-1.08,2.86,2.86,0,0,0-1.48-1.48,2.81,2.81,0,0,0-1.08-.21h-1.28a2.82,2.82,0,0,0-1.09.21,2.86,2.86,0,0,0-.88.6,2.67,2.67,0,0,0-.59.88,2.64,2.64,0,0,0-.22,1.08v7.43a2.79,2.79,0,0,0,.81,2,2.86,2.86,0,0,0,.88.6,2.82,2.82,0,0,0,1.09.21h1.28a2.81,2.81,0,0,0,1.08-.21,2.86,2.86,0,0,0,1.48-1.48,2.83,2.83,0,0,0,.22-1.09Z"/><path class="cls-1" d="M538.47,217.88V195.5h1.92v22.38Z"/><path class="cls-1" d="M561.11,217.88,560,216.26a4.82,4.82,0,0,1-1.63,1.41,4.54,4.54,0,0,1-2.16.52h-.48a4.67,4.67,0,0,1-1.83-.36,4.66,4.66,0,0,1-2.5-2.51,4.49,4.49,0,0,1-.37-1.82V201.9H553v11.7a2.79,2.79,0,0,0,.81,2,2.86,2.86,0,0,0,.88.6,2.82,2.82,0,0,0,1.09.21h1.28a2.81,2.81,0,0,0,1.08-.21,2.75,2.75,0,0,0,.88-.6,2.86,2.86,0,0,0,.6-.88,2.83,2.83,0,0,0,.22-1.09V201.9h1.92v16Z"/><path class="cls-1" d="M577.61,217.88a4.19,4.19,0,0,1-1.65-.33,4.11,4.11,0,0,1-1.34-.9,4.39,4.39,0,0,1-.9-1.34,4,4,0,0,1-.34-1.64v-9.95h-2.87V201.9h2.87v-3.84l1.92-.31v4.15h4.06v1.82H575.3v10a2.25,2.25,0,0,0,.67,1.62,2.36,2.36,0,0,0,.74.5,2.26,2.26,0,0,0,.9.18h1.75v1.82Z"/><path class="cls-1" d="M589.57,198.06V195.5h2.24v2.56Zm.16,19.82v-16h1.92v16Z"/><path class="cls-1" d="M612.64,215.32a4.66,4.66,0,0,1-2.5,2.51,4.7,4.7,0,0,1-1.83.36H607a4.74,4.74,0,0,1-1.83-.36,4.75,4.75,0,0,1-2.5-2.51,4.49,4.49,0,0,1-.37-1.82v-7.22a4.49,4.49,0,0,1,.37-1.82,4.56,4.56,0,0,1,1-1.5,4.68,4.68,0,0,1,1.49-1,4.75,4.75,0,0,1,1.83-.37h1.28a4.71,4.71,0,0,1,1.83.37,4.83,4.83,0,0,1,1.5,1,4.69,4.69,0,0,1,1,1.5,4.49,4.49,0,0,1,.37,1.82v7.22A4.49,4.49,0,0,1,612.64,215.32Zm-1.55-9.15a2.64,2.64,0,0,0-.22-1.08,2.67,2.67,0,0,0-.59-.88,3,3,0,0,0-.88-.6,2.82,2.82,0,0,0-1.09-.21H607a2.77,2.77,0,0,0-1.08.21,2.91,2.91,0,0,0-.89.6,2.79,2.79,0,0,0-.81,2v7.43a2.79,2.79,0,0,0,.81,2,2.91,2.91,0,0,0,.89.6,2.77,2.77,0,0,0,1.08.21h1.28a2.82,2.82,0,0,0,1.09-.21,3,3,0,0,0,.88-.6,2.79,2.79,0,0,0,.81-2Z"/><path class="cls-1" d="M631.81,217.88V206.17a2.64,2.64,0,0,0-.22-1.08,2.67,2.67,0,0,0-.59-.88,3,3,0,0,0-.88-.6,2.82,2.82,0,0,0-1.09-.21h-1.28a2.77,2.77,0,0,0-1.08.21,2.91,2.91,0,0,0-.89.6,2.83,2.83,0,0,0-.59.88,2.64,2.64,0,0,0-.22,1.08v11.71h-1.92v-16h.64l1,1.62a4.76,4.76,0,0,1,1.64-1.41,4.61,4.61,0,0,1,2.17-.53H629a4.71,4.71,0,0,1,1.83.37,4.83,4.83,0,0,1,1.5,1,4.69,4.69,0,0,1,1,1.5,4.49,4.49,0,0,1,.37,1.82v11.6Z"/><path class="cls-1" d="M662.82,197.32a2.26,2.26,0,0,0-.9.18,2.55,2.55,0,0,0-.72.49,2.33,2.33,0,0,0-.49.74,2.26,2.26,0,0,0-.18.9v2.27h3.73v1.82h-3.73v14.16h-1.92V203.72h-2.89V201.9h2.89v-2.17a4.33,4.33,0,0,1,.32-1.65,4.29,4.29,0,0,1,.91-1.35,4.13,4.13,0,0,1,1.34-.91,4.28,4.28,0,0,1,1.64-.32h1.76v1.82Z"/><path class="cls-1" d="M683,215.32a4.72,4.72,0,0,1-2.51,2.51,4.65,4.65,0,0,1-1.82.36h-1.28a4.67,4.67,0,0,1-1.83-.36,4.72,4.72,0,0,1-2.51-2.51,4.65,4.65,0,0,1-.36-1.82v-7.22a4.65,4.65,0,0,1,.36-1.82,4.72,4.72,0,0,1,1-1.5,4.83,4.83,0,0,1,1.5-1,4.67,4.67,0,0,1,1.83-.37h1.28a4.66,4.66,0,0,1,1.82.37,4.83,4.83,0,0,1,1.5,1,4.72,4.72,0,0,1,1,1.5,4.65,4.65,0,0,1,.36,1.82v7.22A4.65,4.65,0,0,1,683,215.32Zm-1.56-9.15a2.81,2.81,0,0,0-.21-1.08,2.86,2.86,0,0,0-1.48-1.48,2.81,2.81,0,0,0-1.08-.21h-1.28a2.82,2.82,0,0,0-1.09.21,2.86,2.86,0,0,0-.88.6,2.67,2.67,0,0,0-.59.88,2.64,2.64,0,0,0-.22,1.08v7.43a2.79,2.79,0,0,0,.81,2,2.86,2.86,0,0,0,.88.6,2.82,2.82,0,0,0,1.09.21h1.28a2.81,2.81,0,0,0,1.08-.21,2.86,2.86,0,0,0,1.48-1.48,2.82,2.82,0,0,0,.21-1.09Z"/><path class="cls-1" d="M698.13,203.72a2.83,2.83,0,0,0-1.09.22,2.86,2.86,0,0,0-.88.6,2.67,2.67,0,0,0-.59.88,2.64,2.64,0,0,0-.22,1.08v11.38h-1.92v-16h.64l1,1.62a4.89,4.89,0,0,1,1.65-1.41,4.54,4.54,0,0,1,2.16-.53h1.13v2.14Z"/><path class="cls-1" d="M735.17,214.53a5.64,5.64,0,0,1-1.18,1.74,5.47,5.47,0,0,1-3.9,1.61H723V195.5h7.09a5.4,5.4,0,0,1,2.15.43A5.54,5.54,0,0,1,734,197.1a5.61,5.61,0,0,1,1.18,1.76,5.36,5.36,0,0,1,.43,2.15v11.38A5.31,5.31,0,0,1,735.17,214.53ZM733.59,201a3.61,3.61,0,0,0-.28-1.4,3.73,3.73,0,0,0-.78-1.14,3.43,3.43,0,0,0-1.14-.77,3.39,3.39,0,0,0-1.39-.28h-5V216h5a3.39,3.39,0,0,0,1.39-.28,3.73,3.73,0,0,0,1.14-.76,3.61,3.61,0,0,0,.78-1.14,3.56,3.56,0,0,0,.28-1.39Z"/><path class="cls-1" d="M745.8,198.06V195.5H748v2.56Zm.16,19.82v-16h1.92v16Z"/><path class="cls-1" d="M769,221.67a4,4,0,0,1-1,1.39,4.55,4.55,0,0,1-1.5.9,5.25,5.25,0,0,1-1.83.32h-.79a5.25,5.25,0,0,1-1.83-.32,4.55,4.55,0,0,1-1.5-.9,4.05,4.05,0,0,1-1-1.39,4.31,4.31,0,0,1-.36-1.77v-.07a4.19,4.19,0,0,1,1.28-3.07,3.38,3.38,0,0,1-1.64-2.94,3.51,3.51,0,0,1,.36-1.57,3.11,3.11,0,0,1,1-1.17A5,5,0,0,1,759,209.5a4.68,4.68,0,0,1-.43-2v-1.21a4.65,4.65,0,0,1,.36-1.82,4.72,4.72,0,0,1,1-1.5,4.83,4.83,0,0,1,1.5-1,4.67,4.67,0,0,1,1.83-.37h.79a4.54,4.54,0,0,1,2.16.53,4.89,4.89,0,0,1,1.65,1.41l1-1.62h.64v5.59a4.66,4.66,0,0,1-.37,1.82,4.83,4.83,0,0,1-1,1.5,4.64,4.64,0,0,1-3.32,1.37h-2.78a1.52,1.52,0,0,0-.63.14,1.83,1.83,0,0,0-.52.35,1.45,1.45,0,0,0-.35.52,1.71,1.71,0,0,0,0,1.26,1.54,1.54,0,0,0,.35.52,1.64,1.64,0,0,0,.52.35,1.51,1.51,0,0,0,.63.13h2.62a5,5,0,0,1,1.83.32,4.7,4.7,0,0,1,1.5.89,4.25,4.25,0,0,1,1.37,3.17v.07A4.16,4.16,0,0,1,769,221.67Zm-1.38-15.5a2.64,2.64,0,0,0-.22-1.08,2.55,2.55,0,0,0-.6-.88,2.91,2.91,0,0,0-.89-.6,2.81,2.81,0,0,0-1.08-.21h-1.59a2.82,2.82,0,0,0-1.09.21,2.86,2.86,0,0,0-.88.6,2.67,2.67,0,0,0-.59.88,2.64,2.64,0,0,0-.22,1.08v1.42a2.77,2.77,0,0,0,2.78,2.78h1.59a2.64,2.64,0,0,0,1.08-.22,2.71,2.71,0,0,0,.89-.59,2.55,2.55,0,0,0,.6-.88,2.66,2.66,0,0,0,.22-1.09Zm-.08,13.57a2.48,2.48,0,0,0-.21-1,2.29,2.29,0,0,0-.6-.77,2.78,2.78,0,0,0-.88-.49,3.49,3.49,0,0,0-1.08-.17h-1a3.44,3.44,0,0,0-1.08.17,2.84,2.84,0,0,0-.89.49,2.26,2.26,0,0,0-.59.77,2.48,2.48,0,0,0-.22,1V220a2.43,2.43,0,0,0,.22,1,2.36,2.36,0,0,0,.59.77,2.49,2.49,0,0,0,.89.49,3.18,3.18,0,0,0,1.08.18h1a3.22,3.22,0,0,0,1.08-.18,2.44,2.44,0,0,0,.88-.49,2.39,2.39,0,0,0,.6-.77,2.43,2.43,0,0,0,.21-1Z"/><path class="cls-1" d="M779.76,198.06V195.5H782v2.56Zm.16,19.82v-16h1.92v16Z"/><path class="cls-1" d="M798.34,217.88a4.19,4.19,0,0,1-1.65-.33,4.11,4.11,0,0,1-1.34-.9,4.39,4.39,0,0,1-.9-1.34,4,4,0,0,1-.34-1.64v-9.95h-2.87V201.9h2.87v-3.84l1.92-.31v4.15h4.06v1.82H796v10a2.25,2.25,0,0,0,.67,1.62,2.36,2.36,0,0,0,.74.5,2.26,2.26,0,0,0,.9.18h1.75v1.82Z"/><path class="cls-1" d="M819.86,217.88l-1.07-1.59a5,5,0,0,1-1.63,1.38,4.54,4.54,0,0,1-2.16.52h-.48a4.67,4.67,0,0,1-1.83-.36,4.66,4.66,0,0,1-2.5-2.51,4.49,4.49,0,0,1-.37-1.82v-.16a4.5,4.5,0,0,1,.37-1.83,4.6,4.6,0,0,1,2.5-2.5,4.5,4.5,0,0,1,1.83-.37h4.06v-2.47a2.82,2.82,0,0,0-.22-1.08,2.86,2.86,0,0,0-.6-.88,2.75,2.75,0,0,0-.88-.6,2.81,2.81,0,0,0-1.08-.21h-1.13a2.81,2.81,0,0,0-1.08.21,2.86,2.86,0,0,0-1.48,1.48,2.81,2.81,0,0,0-.21,1.08v.58l-1.92-.31v-.16a4.65,4.65,0,0,1,.36-1.82,4.72,4.72,0,0,1,1-1.5,4.83,4.83,0,0,1,1.5-1,4.66,4.66,0,0,1,1.82-.37h1.13a4.75,4.75,0,0,1,1.83.37,4.68,4.68,0,0,1,1.49,1,4.56,4.56,0,0,1,1,1.5,4.66,4.66,0,0,1,.37,1.82v11.6Zm-1.28-7.74h-4.06a2.66,2.66,0,0,0-1.09.22,2.55,2.55,0,0,0-.88.6,2.71,2.71,0,0,0-.59.89,2.64,2.64,0,0,0-.22,1.08v.67a2.79,2.79,0,0,0,.81,2,2.86,2.86,0,0,0,.88.6,2.82,2.82,0,0,0,1.09.21h1.28a2.81,2.81,0,0,0,1.08-.21,2.75,2.75,0,0,0,.88-.6,2.86,2.86,0,0,0,.6-.88,2.83,2.83,0,0,0,.22-1.09Z"/><path class="cls-1" d="M831.18,217.88V195.5h1.92v22.38Z"/><path class="cls-1" d="M858,217.88V195.5h12.59v1.92H860v8.32h8.57v1.92H860V216h10.58v1.92Z"/><path class="cls-1" d="M888.25,217.88l-3.42-6.13-3.42,6.13h-2.07l4.48-8-4.48-8h2.07l3.42,6.13,3.42-6.13h2.08l-4.47,8,4.47,8Z"/><path class="cls-1" d="M910,215.32a4.83,4.83,0,0,1-1,1.5,4.72,4.72,0,0,1-1.5,1,4.65,4.65,0,0,1-1.82.36h-1.28a4.67,4.67,0,0,1-1.83-.36,4.72,4.72,0,0,1-2.51-2.51,4.65,4.65,0,0,1-.36-1.82v-7.22a4.65,4.65,0,0,1,.36-1.82,4.72,4.72,0,0,1,1-1.5,4.83,4.83,0,0,1,1.5-1,4.67,4.67,0,0,1,1.83-.37h1.28a4.66,4.66,0,0,1,1.82.37,4.72,4.72,0,0,1,2.51,2.51,4.66,4.66,0,0,1,.37,1.82v.64l-1.92.32v-1.07a2.82,2.82,0,0,0-.22-1.08,2.86,2.86,0,0,0-1.48-1.48,2.81,2.81,0,0,0-1.08-.21h-1.28a2.82,2.82,0,0,0-1.09.21,2.86,2.86,0,0,0-.88.6,2.67,2.67,0,0,0-.59.88,2.64,2.64,0,0,0-.22,1.08v7.43a2.79,2.79,0,0,0,.81,2,2.86,2.86,0,0,0,.88.6,2.82,2.82,0,0,0,1.09.21h1.28a2.81,2.81,0,0,0,1.08-.21,2.86,2.86,0,0,0,1.48-1.48,2.83,2.83,0,0,0,.22-1.09v-1.06l1.92.32v.64A4.66,4.66,0,0,1,910,215.32Z"/><path class="cls-1" d="M930.76,215.32a4.83,4.83,0,0,1-1,1.5,4.72,4.72,0,0,1-1.5,1,4.65,4.65,0,0,1-1.82.36h-1.28a4.67,4.67,0,0,1-1.83-.36,4.72,4.72,0,0,1-2.51-2.51,4.65,4.65,0,0,1-.36-1.82v-7.22a4.65,4.65,0,0,1,.36-1.82,4.72,4.72,0,0,1,1-1.5,4.83,4.83,0,0,1,1.5-1,4.67,4.67,0,0,1,1.83-.37h1.28a4.66,4.66,0,0,1,1.82.37,4.72,4.72,0,0,1,2.51,2.51,4.66,4.66,0,0,1,.37,1.82v3.77h-8.76v3.55a2.79,2.79,0,0,0,.81,2,2.86,2.86,0,0,0,.88.6,2.82,2.82,0,0,0,1.09.21h1.28a2.81,2.81,0,0,0,1.08-.21,2.86,2.86,0,0,0,1.48-1.48,2.83,2.83,0,0,0,.22-1.09v-1.06l1.92.32v.64A4.66,4.66,0,0,1,930.76,215.32Zm-1.55-9.15a2.82,2.82,0,0,0-.22-1.08,2.86,2.86,0,0,0-1.48-1.48,2.81,2.81,0,0,0-1.08-.21h-1.28a2.82,2.82,0,0,0-1.09.21,2.86,2.86,0,0,0-.88.6,2.67,2.67,0,0,0-.59.88,2.64,2.64,0,0,0-.22,1.08v2.38h6.84Z"/><path class="cls-1" d="M941.81,217.88V195.5h1.92v22.38Z"/><path class="cls-1" d="M955.05,217.88V195.5H957v22.38Z"/><path class="cls-1" d="M978,215.32a4.66,4.66,0,0,1-2.5,2.51,4.7,4.7,0,0,1-1.83.36h-1.28a4.74,4.74,0,0,1-1.83-.36,4.75,4.75,0,0,1-2.5-2.51,4.49,4.49,0,0,1-.37-1.82v-7.22a4.49,4.49,0,0,1,.37-1.82,4.56,4.56,0,0,1,1-1.5,4.68,4.68,0,0,1,1.49-1,4.75,4.75,0,0,1,1.83-.37h1.28a4.71,4.71,0,0,1,1.83.37,4.83,4.83,0,0,1,1.5,1,4.69,4.69,0,0,1,1,1.5,4.49,4.49,0,0,1,.37,1.82v3.77h-8.76v3.55a2.66,2.66,0,0,0,.22,1.09,2.83,2.83,0,0,0,.59.88,2.91,2.91,0,0,0,.89.6,2.74,2.74,0,0,0,1.08.21h1.28a2.77,2.77,0,0,0,1.08-.21,2.91,2.91,0,0,0,.89-.6,2.83,2.83,0,0,0,.59-.88,2.66,2.66,0,0,0,.22-1.09v-1.06l1.92.32v.64A4.49,4.49,0,0,1,978,215.32Zm-1.55-9.15a2.64,2.64,0,0,0-.22-1.08,2.83,2.83,0,0,0-.59-.88,2.91,2.91,0,0,0-.89-.6,2.77,2.77,0,0,0-1.08-.21h-1.28a2.74,2.74,0,0,0-1.08.21,2.91,2.91,0,0,0-.89.6,2.83,2.83,0,0,0-.59.88,2.64,2.64,0,0,0-.22,1.08v2.38h6.84Z"/><path class="cls-1" d="M997.13,217.88V206.17a2.64,2.64,0,0,0-.22-1.08,2.83,2.83,0,0,0-.59-.88,2.91,2.91,0,0,0-.89-.6,2.77,2.77,0,0,0-1.08-.21h-1.28a2.74,2.74,0,0,0-1.08.21,2.91,2.91,0,0,0-.89.6,2.83,2.83,0,0,0-.59.88,2.64,2.64,0,0,0-.22,1.08v11.71h-1.92v-16H989l1,1.62a4.76,4.76,0,0,1,1.64-1.41,4.61,4.61,0,0,1,2.17-.53h.48a4.66,4.66,0,0,1,3.32,1.38,4.56,4.56,0,0,1,1,1.5,4.49,4.49,0,0,1,.37,1.82v11.6Z"/><path class="cls-1" d="M1019.4,215.32a4.75,4.75,0,0,1-2.5,2.51,4.74,4.74,0,0,1-1.83.36h-1.28a4.7,4.7,0,0,1-1.83-.36,4.66,4.66,0,0,1-2.5-2.51,4.49,4.49,0,0,1-.37-1.82v-7.22a4.49,4.49,0,0,1,.37-1.82,4.69,4.69,0,0,1,1-1.5,4.83,4.83,0,0,1,1.5-1,4.71,4.71,0,0,1,1.83-.37h1.28a4.75,4.75,0,0,1,1.83.37,4.68,4.68,0,0,1,1.49,1,4.56,4.56,0,0,1,1,1.5,4.49,4.49,0,0,1,.37,1.82v.64l-1.92.32v-1.07a2.64,2.64,0,0,0-.22-1.08,2.83,2.83,0,0,0-.59-.88,2.91,2.91,0,0,0-.89-.6,2.77,2.77,0,0,0-1.08-.21h-1.28a2.74,2.74,0,0,0-1.08.21,2.91,2.91,0,0,0-.89.6,2.83,2.83,0,0,0-.59.88,2.64,2.64,0,0,0-.22,1.08v7.43a2.66,2.66,0,0,0,.22,1.09,2.83,2.83,0,0,0,.59.88,2.91,2.91,0,0,0,.89.6,2.74,2.74,0,0,0,1.08.21h1.28a2.77,2.77,0,0,0,1.08-.21,2.91,2.91,0,0,0,.89-.6,2.83,2.83,0,0,0,.59-.88,2.66,2.66,0,0,0,.22-1.09v-1.06l1.92.32v.64A4.49,4.49,0,0,1,1019.4,215.32Z"/><path class="cls-1" d="M1040.12,215.32a4.75,4.75,0,0,1-2.5,2.51,4.74,4.74,0,0,1-1.83.36h-1.28a4.67,4.67,0,0,1-1.83-.36,4.66,4.66,0,0,1-2.5-2.51,4.49,4.49,0,0,1-.37-1.82v-7.22a4.49,4.49,0,0,1,.37-1.82,4.69,4.69,0,0,1,1-1.5,4.83,4.83,0,0,1,1.5-1,4.67,4.67,0,0,1,1.83-.37h1.28a4.75,4.75,0,0,1,1.83.37,4.68,4.68,0,0,1,1.49,1,4.56,4.56,0,0,1,1,1.5,4.49,4.49,0,0,1,.37,1.82v3.77h-8.76v3.55a2.79,2.79,0,0,0,.81,2,3,3,0,0,0,.88.6,2.82,2.82,0,0,0,1.09.21h1.28a2.77,2.77,0,0,0,1.08-.21,2.91,2.91,0,0,0,.89-.6,2.83,2.83,0,0,0,.59-.88,2.66,2.66,0,0,0,.22-1.09v-1.06l1.92.32v.64A4.49,4.49,0,0,1,1040.12,215.32Zm-1.55-9.15a2.64,2.64,0,0,0-.22-1.08,2.83,2.83,0,0,0-.59-.88,2.91,2.91,0,0,0-.89-.6,2.77,2.77,0,0,0-1.08-.21h-1.28a2.82,2.82,0,0,0-1.09.21,3,3,0,0,0-.88.6,2.67,2.67,0,0,0-.59.88,2.64,2.64,0,0,0-.22,1.08v2.38h6.84Z"/></g></g></svg>