<svg xmlns="http://www.w3.org/2000/svg" viewBox="0 0 4097.59 939.58"><defs><style>.cls-1{fill:#fff;}</style></defs><g id="Layer_2" data-name="Layer 2"><g id="Layer_1-2" data-name="Layer 1"><g id="Layer_1-2-2" data-name="Layer 1-2"><path class="cls-1" d="M253.13,446.14c.3,5.21.06,9.61.07,14q.27,126.1.66,252.2c0,7.17-.1,19.26-.1,19.26.08-.47,7.9.2,13.23.43,10.09-.11,19.2,0,29.08,0,6.52-.14,10.75-.43,10.75-.43s.22-6.79.14-10.64c-.35-16.51,0-33,0-49.55s-.06-45.44,0-62l34-.43c-.13,9.43,0,29.38,0,38.82,0,24.77.16,49.55-.07,74.34v4a4.37,4.37,0,0,0,4.38,4.35h.1c1,0,2-.06,2.86-.07,10.28-.21,20.55-.33,30.8-.88,6.45-.34,10.16-4.31,11.1-10.63a86.72,86.72,0,0,0,1.25-13.16q-.21-49.54-.68-99.1c-.19-24.9-9.59-34.92-34.78-35.33-13.24-.22-25-2.55-34.57-12.5-7.71-8-12.79-17.07-12.85-28.21-.16-25.66-.29-51.32.19-77,.27-14.57,6.92-26.65,19.86-33.4,25.25-13.19,51.34-14.94,76.88-.82,15.6,8.63,23.52,22.68,23.78,40.72.17,11.5.16,29.27.46,40.77l-34.16-.18c.11-10,0-27.58-.25-37.61-.24-10.65-5-16.34-15.39-18.38a61.81,61.81,0,0,0-13.15-1.36c-18.83.39-25.21,7.09-25.11,25.81.11,18,.16,36,.28,54,.07,11.05,1.52,12.82,12.85,12.83,21.67,0,40.61,6.32,55.38,22.84C420.05,570,426,582.93,426,598.05c.09,39.24.59,78.48-.29,117.69A52.66,52.66,0,0,1,417.17,743c-12.46,18.14-8.79,34.63,1.92,51,21.31,32.53,61.4,49.62,98.1,42.43,41.27-8.1,70.31-36.16,77.68-77,12.86-71.63,25-143.39,37.28-215.13,5.17-30.21,9.88-60.49,14.74-90.75.32-2,.27-4,.43-6.75H535.82c-.14,3-.41,6.17-.41,9.28-.12,97.93-.36,195.88-.09,293.79,0,4,.07,10.89.07,10.89l-11.68.17c-7.72.12-23.42-.13-23.42-.13V445.19H445v-33.3H694.46c8.54,0,11.77,2.34,13.65,11.27Q737.46,561.49,768,699.58c6,27.13-7.34,51.87-33.25,60.28-26.51,8.55-55.75-3-63.91-27.45-4.08-12.21-3.33-26-4.5-39.17l-.39-3.93,32.9-.1,1.25,9.58c1,5.79.86,11.76,1.72,17.59,1.41,9.67,7.92,15.07,16,13.81,10.59-1.68,19.2-11.05,17.23-19.75q-5.82-25.4-12.83-50.53c-.62-2.19-4.34-5-6.66-5-20.62-.31-41.26,0-61.88,0-5.34,0-6,3.21-6.72,7.31-5.74,33.69-11.25,67.43-17.5,101C618.3,823.11,572.74,865.37,512.81,872c-60.89,6.79-118.89-31.4-137-90.18-4.69-15.28-4.69-15.26-20.43-15.32-71-.3-142-.89-213-.59-11.05,0-15.14-4.79-17.66-13.79-8.51-30.36-17.61-60.55-25.54-91C79,583.53,59.37,505.83,39.54,428.17c-1.15-4.49-2-11.32-3.28-16.86l32.75.1c17.78,67.75,36.91,139.24,54.54,207.1l10,34.6-3.23-241.87,35,.27v25s-.51,189.36-1,284.05c0,2.88.3,10.31.3,10.31s6.56-.17,10,0c11.66-.2,21.1,0,32.36.06,3.81,0,12-.33,12-.33s-.1-9.28-.11-12.73q-.33-133.18-.27-266.37a25.2,25.2,0,0,0-.12-4.91c-12,0-24.48-.23-36.44.29l-.32-35.62H294.37l-.05,34.94ZM656.36,618.82h57.13c-10.74-49.74-22.3-99-32.88-148Z"/><path class="cls-1" d="M429.06,348.5c22.49,0,43.07-.11,63.65.07,5.79,0,6.71-2.88,6.63-7.76-.28-15.63-.35-31.26-.35-46.89q.08-139.35.21-278.7c0-2.6,0-6.19,0-9.54,3.26-.27,5.75.33,8.3.31,18.27-.17,36.54-.31,54.8-.31,53.35,0,90.85,34.24,92.11,87.67q2.46,103.91.43,207.93c-.67,31.63-20.86,53.59-47.22,69.39a91.63,91.63,0,0,1-48,13.12c-113.43-.1-303.36-.44-416.74-.24-3.64,0-9.87.12-9.87.12V374l.21-24.61,100.35-.12q27,0,53.92-.06c3.12,0,6.25-.28,11.4-.53-3.3-4.32-5.45-7.27-7.76-10.1-15.23-18.76-22.93-39.76-22.63-64.36.72-58.39,1.3-116.81.16-175.18-.83-42.88,28.13-77.61,65.1-90.4S410.48,8.55,436.3,41.2c13.61,17.24,20.89,36.73,20.78,58.84-.29,61.33-1.12,122.68-.57,184,.21,22.79-7.71,41.26-22.17,57.82C432.82,343.53,431.49,345.4,429.06,348.5Zm-7.52-158.25h.18q0-46.42,0-92.84c0-11.94-3.89-22.47-10.49-32.24C396.6,43.49,371,33.72,346.37,40.58c-25.57,7.13-42.19,28.23-42.81,55.17-.49,21.81-.39,43.62-.42,65.43-.06,38,.08,76,0,114.07-.07,25.18,10.6,44.75,31.91,57.39,35.73,21.18,85.12-6.15,86.31-47.77.89-31.53.18-63.08.18-94.62ZM533.8,38.73V51.42q0,72.07-.08,144.16c0,48,.16,96.11-.05,144.16,0,6.51,1.78,9.12,8.5,8.58,7.91-.63,15.91-.15,23.82-.82,31.35-2.68,55.07-27.93,54.89-57.5-.35-56.89-.38-113.78-.59-170.68,0-10.89.77-21.91-.71-32.62-3-21.52-14.14-38.34-35.86-43.49C568,39.5,551.31,40.13,533.8,38.73Z"/><path class="cls-1" d="M227.59,239.13s-.64,33.29-.92,41.09c.07,44.06-37,92.72-87.65,103C70.32,397.16,7.23,351.3,2.8,281.28-.38,231.05,1,180.47,1.33,130.1,1.46,112,2.46,93.31,6.91,75.86,17,36.46,53.93,7.22,94.11,6.14,135.3,5,174.23,5.5,215.48,5.4l9.75-.09V39L106.14,41C87.91,41,71.23,44.62,57.08,57.24,42.19,70.5,37.31,87.52,37.22,106.45c-.26,54.84-.49,109.7-.33,164.54.09,32.15,14,56.35,42.68,72,39.17,21.36,106-.83,112.16-59.4,1-9,2.38-44.63,2.38-44.63Z"/><path class="cls-1" d="M661.71,345c13.38-15.17,26.37-29.78,37-46.62,48.83-77.15,44.35-170-10-243.83-5.73-7.76-11.8-15.28-18.57-24,9-5.33,17.25-10.42,25.77-14.84,1.36-.7,5,1,6.37,2.59,65,76.1,72.54,198.32,47.54,255.84s-68.77,97.81-68.77,97.81Z"/><rect class="cls-1" x="0.72" y="832.82" width="351.56" height="39.93"/><path class="cls-1" d="M110.71,752.62c-29.82,2.56-53.45,27.8-53.45,57.18A57.27,57.27,0,0,0,0,752.62l1-.08a57.46,57.46,0,0,0,52.44-57.08,57.26,57.26,0,0,0,57.26,57.16"/></g><path class="cls-1" d="M1232.89,568.83a159.68,159.68,0,0,1-84.71,84.71,155.22,155.22,0,0,1-61.9,12.43h-46.09a156.77,156.77,0,0,1-62.12-12.43,159.07,159.07,0,0,1-84.94-84.71,155,155,0,0,1-12.42-61.9V159a155,155,0,0,1,12.42-61.9,159.07,159.07,0,0,1,84.94-84.71A156.77,156.77,0,0,1,1040.19,0h46.09a155.22,155.22,0,0,1,61.9,12.43,159.68,159.68,0,0,1,84.71,84.71,155.18,155.18,0,0,1,12.43,61.9v26.2l-58.29,9V159a100.55,100.55,0,0,0-8.13-40.44A104.06,104.06,0,0,0,1124,63.71a100.42,100.42,0,0,0-40.44-8.14H1042.9a100.34,100.34,0,0,0-40.43,8.14,107.58,107.58,0,0,0-33,22.13,103.06,103.06,0,0,0-22.37,32.76A100.55,100.55,0,0,0,939,159V506.93a100.55,100.55,0,0,0,8.13,40.44,105.84,105.84,0,0,0,55.35,55.35,100.5,100.5,0,0,0,40.43,8.13h40.67a100.58,100.58,0,0,0,40.44-8.13,103.18,103.18,0,0,0,32.75-22.37,107.73,107.73,0,0,0,22.14-33,100.55,100.55,0,0,0,8.13-40.44V471.69l58.29,9.49v25.75A155.15,155.15,0,0,1,1232.89,568.83Z"/><path class="cls-1" d="M1654.88,582.83a135.64,135.64,0,0,1-72.51,72.52A133.13,133.13,0,0,1,1529.5,666h-37a133.11,133.11,0,0,1-52.86-10.62,135.64,135.64,0,0,1-72.51-72.52A133,133,0,0,1,1356.46,530V321.24a133,133,0,0,1,10.62-52.86,135.64,135.64,0,0,1,72.51-72.52,133.29,133.29,0,0,1,52.86-10.62h37a133.3,133.3,0,0,1,52.87,10.62,135.64,135.64,0,0,1,72.51,72.52,133,133,0,0,1,10.62,52.86V530A133,133,0,0,1,1654.88,582.83Zm-45-264.76a78.69,78.69,0,0,0-6.33-31.4A80.12,80.12,0,0,0,1560.91,244a78.57,78.57,0,0,0-31.41-6.33h-37a78.48,78.48,0,0,0-31.4,6.33,80.12,80.12,0,0,0-42.69,42.69,78.52,78.52,0,0,0-6.33,31.4V533.14a78.45,78.45,0,0,0,6.33,31.4,80.12,80.12,0,0,0,42.69,42.69,78.31,78.31,0,0,0,31.4,6.33h37a78.39,78.39,0,0,0,31.41-6.33,80.12,80.12,0,0,0,42.69-42.69,78.62,78.62,0,0,0,6.33-31.4Z"/><path class="cls-1" d="M2067.16,656.93l-30.73-47A139.38,139.38,0,0,1,1989,650.83Q1960.54,666,1926.64,666h-14a133,133,0,0,1-52.86-10.62,135.61,135.61,0,0,1-72.52-72.52A133,133,0,0,1,1776.64,530V321.24a133,133,0,0,1,10.62-52.86,135.61,135.61,0,0,1,72.52-72.52,133.22,133.22,0,0,1,52.86-10.62h14a133.23,133.23,0,0,1,103.47,47.89V9h55.58V656.93Zm-37-338.86a78.68,78.68,0,0,0-6.32-31.4,80.09,80.09,0,0,0-42.7-42.69,78.48,78.48,0,0,0-31.4-6.33h-37a78.41,78.41,0,0,0-31.4,6.33,80.09,80.09,0,0,0-42.7,42.69,78.51,78.51,0,0,0-6.32,31.4V533.14a78.44,78.44,0,0,0,6.32,31.4,80.09,80.09,0,0,0,42.7,42.69,78.24,78.24,0,0,0,31.4,6.33h37a78.31,78.31,0,0,0,31.4-6.33,80.09,80.09,0,0,0,42.7-42.69,78.61,78.61,0,0,0,6.32-31.4Z"/><path class="cls-1" d="M2566.86,514.61l1.81,23.95,1.8-23.95L2714.15,9h60.09L2583.58,656.93h-30.73L2363.09,9h60.55Z"/><path class="cls-1" d="M2852.86,83.13V9h64.6V83.13Zm4.52,573.8V194.28H2913V656.93Z"/><path class="cls-1" d="M3360.69,539.46q0,28-11.29,51.28a123.15,123.15,0,0,1-30.73,40,143,143,0,0,1-45,26,156.13,156.13,0,0,1-53.54,9.26h-37a138,138,0,0,1-53.54-10.62,142.06,142.06,0,0,1-75.45-72.52A124.13,124.13,0,0,1,3042.62,530V511.45l55.57-9v30.73a72,72,0,0,0,7,31.4,82.89,82.89,0,0,0,18.75,25.52,90.08,90.08,0,0,0,27.11,17.17,83.19,83.19,0,0,0,32.08,6.33h37a103.43,103.43,0,0,0,32.08-5,89,89,0,0,0,27.33-14.23,69.41,69.41,0,0,0,19-22.37q7-13.1,7-29.82,0-24.84-10.84-40.66A90,90,0,0,0,3266,475.08a186.78,186.78,0,0,0-40.67-17.62q-22.82-7-46.76-14t-46.76-16a150.73,150.73,0,0,1-40.66-23.72,108.79,108.79,0,0,1-28.69-36.82q-10.85-22.12-10.85-55.12,0-28,10.85-51.28a123.45,123.45,0,0,1,29.37-40,134.21,134.21,0,0,1,43.14-26,148.35,148.35,0,0,1,52.64-9.26h32.53A133.29,133.29,0,0,1,3273,195.86a135.64,135.64,0,0,1,72.51,72.52,133,133,0,0,1,10.62,52.86V323l-55.57,9v-14a78.52,78.52,0,0,0-6.33-31.4A80,80,0,0,0,3251.58,244a78.48,78.48,0,0,0-31.4-6.33h-32.53a97.33,97.33,0,0,0-31.4,5,76.89,76.89,0,0,0-25.53,14.23,68,68,0,0,0-17.17,22.37q-6.33,13.11-6.32,29.82,0,24,10.84,39.08a90.8,90.8,0,0,0,28.69,25.53A192.75,192.75,0,0,0,3187.42,391q22.82,7,46.54,14.46t46.54,16.94a157.23,157.23,0,0,1,40.66,24.4,110.83,110.83,0,0,1,28.69,37.28Q3360.7,506.47,3360.69,539.46Z"/><path class="cls-1" d="M3635.84,656.93a120.66,120.66,0,0,1-47.66-9.49,119.21,119.21,0,0,1-38.86-26.2,127.64,127.64,0,0,1-26.2-38.86,116.62,116.62,0,0,1-9.72-47.44V247.14h-83.13V194.28h83.13V83.13l55.57-9V194.28h117.48v52.86H3569V537.65a64.4,64.4,0,0,0,5.2,26,66.54,66.54,0,0,0,35.47,35.24,66,66,0,0,0,26.2,5.2h50.61v52.86Z"/><path class="cls-1" d="M4079.07,656.93l-30.73-46.08a143.7,143.7,0,0,1-47.44,40Q3972.45,666,3938.55,666h-14a133,133,0,0,1-52.86-10.62,135.61,135.61,0,0,1-72.52-72.52A133,133,0,0,1,3788.55,530v-4.52a133.11,133.11,0,0,1,10.62-52.86,135.64,135.64,0,0,1,72.52-72.51,133,133,0,0,1,52.86-10.62H4042V318.07a78.52,78.52,0,0,0-6.33-31.4A80.09,80.09,0,0,0,3993,244a78.43,78.43,0,0,0-31.39-6.33h-32.54a78.48,78.48,0,0,0-31.4,6.33A80.12,80.12,0,0,0,3855,286.67a78.52,78.52,0,0,0-6.33,31.4v16.72l-55.57-9v-4.52a133,133,0,0,1,10.62-52.86,135.64,135.64,0,0,1,72.51-72.52,133.25,133.25,0,0,1,52.86-10.62h32.54a133.29,133.29,0,0,1,52.86,10.62A135.64,135.64,0,0,1,4087,268.38a133,133,0,0,1,10.62,52.86V656.93ZM4042,432.83H3924.55a79.37,79.37,0,0,0-56.93,23.72,83.82,83.82,0,0,0-17.17,25.76,78.48,78.48,0,0,0-6.33,31.4v19.43a78.45,78.45,0,0,0,6.33,31.4,80.09,80.09,0,0,0,42.7,42.69,78.24,78.24,0,0,0,31.4,6.33h37a78.26,78.26,0,0,0,31.39-6.33,80.09,80.09,0,0,0,42.7-42.69,78.45,78.45,0,0,0,6.33-31.4Z"/><path class="cls-1" d="M989.1,868.48a41.55,41.55,0,0,1-22,22,40.4,40.4,0,0,1-16.1,3.23H939a40.84,40.84,0,0,1-16.16-3.23,41.39,41.39,0,0,1-22.1-22,40.23,40.23,0,0,1-3.23-16.1v-90.5a40.27,40.27,0,0,1,3.23-16.1,41.33,41.33,0,0,1,22.1-22A40.67,40.67,0,0,1,939,720.51h12a40.24,40.24,0,0,1,16.1,3.24,41.49,41.49,0,0,1,22,22,40.44,40.44,0,0,1,3.23,16.1v90.5A40.4,40.4,0,0,1,989.1,868.48Zm-11.93-106.6a26.19,26.19,0,0,0-2.11-10.52,27.1,27.1,0,0,0-14.28-14.28A26.19,26.19,0,0,0,950.26,735H939.68a26.15,26.15,0,0,0-10.52,2.11,28.38,28.38,0,0,0-8.58,5.76,26.94,26.94,0,0,0-5.82,8.52,26.19,26.19,0,0,0-2.11,10.52v90.5a26.15,26.15,0,0,0,2.11,10.52,27.47,27.47,0,0,0,14.4,14.39,26.16,26.16,0,0,0,10.52,2.12h10.58a26.19,26.19,0,0,0,10.52-2.12,26.91,26.91,0,0,0,8.52-5.81,28.19,28.19,0,0,0,5.76-8.58,26.15,26.15,0,0,0,2.11-10.52Z"/><path class="cls-1" d="M1114.68,891.4V803.25a20.39,20.39,0,0,0-1.65-8.17,20.82,20.82,0,0,0-11.11-11.1,20.34,20.34,0,0,0-8.16-1.65h-9.64A20.39,20.39,0,0,0,1076,784a20.82,20.82,0,0,0-11.11,11.1,20.56,20.56,0,0,0-1.64,8.17V891.4h-14.46V771.05h4.82l7.88,12.22a36.08,36.08,0,0,1,12.4-10.63,34.26,34.26,0,0,1,16.27-3.94h3.65a34.67,34.67,0,0,1,13.75,2.76,35.3,35.3,0,0,1,18.86,18.86,34.69,34.69,0,0,1,2.76,13.76V891.4Z"/><path class="cls-1" d="M1260.7,872.12A35.27,35.27,0,0,1,1241.84,891a34.67,34.67,0,0,1-13.75,2.76h-9.64A34.64,34.64,0,0,1,1204.7,891a35.27,35.27,0,0,1-18.86-18.87,34.47,34.47,0,0,1-2.77-13.75V804.08a34.52,34.52,0,0,1,2.77-13.76,35.3,35.3,0,0,1,18.86-18.86,34.64,34.64,0,0,1,13.75-2.76h9.64a34.67,34.67,0,0,1,13.75,2.76,35.3,35.3,0,0,1,18.86,18.86,34.69,34.69,0,0,1,2.76,13.76V832.4h-65.93v26.79a20.36,20.36,0,0,0,1.65,8.17,20.91,20.91,0,0,0,4.46,6.64,21.22,21.22,0,0,0,6.64,4.47,20.39,20.39,0,0,0,8.17,1.64h9.64a20.39,20.39,0,0,0,8.17-1.64,20.82,20.82,0,0,0,11.1-11.11,20.36,20.36,0,0,0,1.65-8.17v-8l14.45,2.35v4.82A34.64,34.64,0,0,1,1260.7,872.12ZM1249,803.25a20.39,20.39,0,0,0-1.65-8.17,20.75,20.75,0,0,0-11.1-11.1,20.39,20.39,0,0,0-8.17-1.65h-9.64a20.39,20.39,0,0,0-8.17,1.65,20.75,20.75,0,0,0-11.1,11.1,20.39,20.39,0,0,0-1.65,8.17v17.87H1249Z"/><path class="cls-1" d="M1314.94,817.71V804.08h45v13.63Z"/><path class="cls-1" d="M1508.74,852.38a38,38,0,0,1-3.47,16.1,43.24,43.24,0,0,1-22.8,22,41.71,41.71,0,0,1-16.28,3.23h-12.1a41.71,41.71,0,0,1-16.28-3.23,43.33,43.33,0,0,1-22.8-22,38,38,0,0,1-3.47-16.1v-6.7l15.17-2.47v9.17A24.39,24.39,0,0,0,1429,862.9a28.36,28.36,0,0,0,6.17,8.58,28.91,28.91,0,0,0,9,5.81,27.85,27.85,0,0,0,10.75,2.12h10.58a27.41,27.41,0,0,0,10.69-2.12,29.27,29.27,0,0,0,8.94-5.81,28.71,28.71,0,0,0,6.17-8.58,24.54,24.54,0,0,0,2.29-10.52v-5.06q0-8.69-3.41-14.45a32.13,32.13,0,0,0-9.05-9.81,58.7,58.7,0,0,0-12.75-6.88q-7.11-2.82-14.63-5.64t-14.64-6.23a52.8,52.8,0,0,1-12.75-8.52,38.19,38.19,0,0,1-9-12.52q-3.4-7.39-3.41-18.21v-3.18a40.27,40.27,0,0,1,3.24-16.1,41.36,41.36,0,0,1,22.09-22,40.7,40.7,0,0,1,16.16-3.24h10.81a40.32,40.32,0,0,1,16.11,3.24,41.51,41.51,0,0,1,22,22,40.27,40.27,0,0,1,3.23,16.1v4.35l-15.16,2.47v-6.82a26.19,26.19,0,0,0-2.11-10.52,27.27,27.27,0,0,0-5.76-8.52,27.62,27.62,0,0,0-8.52-5.76,26.15,26.15,0,0,0-10.52-2.11h-9.4a26.15,26.15,0,0,0-10.52,2.11,28.38,28.38,0,0,0-8.58,5.76,26.78,26.78,0,0,0-5.82,8.52,26.19,26.19,0,0,0-2.11,10.52v3.18q0,8.1,3.4,13.63a32,32,0,0,0,9,9.46,64.19,64.19,0,0,0,12.75,6.82q7.11,2.88,14.64,5.87t14.63,6.58a55.37,55.37,0,0,1,12.75,8.82,39.28,39.28,0,0,1,9,12.75q3.4,7.53,3.41,18.33Z"/><path class="cls-1" d="M1605.34,891.4a31.5,31.5,0,0,1-22.5-9.29A33.5,33.5,0,0,1,1576,872a30.48,30.48,0,0,1-2.53-12.34V784.8h-21.62V771.05h21.62V742.14l14.46-2.35v31.26h30.56V784.8H1588v75.57a16.83,16.83,0,0,0,1.35,6.76,17.57,17.57,0,0,0,3.7,5.46,17.43,17.43,0,0,0,12.34,5.06h13.17V891.4Z"/><path class="cls-1" d="M1747.73,872.12A35.24,35.24,0,0,1,1728.86,891a34.64,34.64,0,0,1-13.75,2.76h-9.63a34.69,34.69,0,0,1-13.76-2.76,35.27,35.27,0,0,1-18.86-18.87,34.64,34.64,0,0,1-2.76-13.75V804.08a34.69,34.69,0,0,1,2.76-13.76,35.3,35.3,0,0,1,18.86-18.86,34.69,34.69,0,0,1,13.76-2.76h9.63a34.64,34.64,0,0,1,13.75,2.76,35.27,35.27,0,0,1,18.87,18.86,34.69,34.69,0,0,1,2.76,13.76v54.29A34.64,34.64,0,0,1,1747.73,872.12ZM1736,803.25a20.56,20.56,0,0,0-1.64-8.17,20.82,20.82,0,0,0-11.11-11.1,20.39,20.39,0,0,0-8.17-1.65h-9.63a20.36,20.36,0,0,0-8.17,1.65,20.82,20.82,0,0,0-11.11,11.1,20.39,20.39,0,0,0-1.64,8.17v55.94a20.35,20.35,0,0,0,1.64,8.17,20.88,20.88,0,0,0,11.11,11.11,20.35,20.35,0,0,0,8.17,1.64h9.63a20.39,20.39,0,0,0,8.17-1.64,20.88,20.88,0,0,0,11.11-11.11,20.52,20.52,0,0,0,1.64-8.17Z"/><path class="cls-1" d="M1882.06,872.12A35.24,35.24,0,0,1,1863.19,891a34.64,34.64,0,0,1-13.75,2.76h-3.64a34.63,34.63,0,0,1-26.91-12.46v58.29h-14.46V771.05h4.82l7.87,12.22a36.26,36.26,0,0,1,12.4-10.63,34.3,34.3,0,0,1,16.28-3.94h3.64a34.64,34.64,0,0,1,13.75,2.76,35.27,35.27,0,0,1,18.87,18.86,34.69,34.69,0,0,1,2.76,13.76v54.29A34.64,34.64,0,0,1,1882.06,872.12Zm-11.7-68.87a20.56,20.56,0,0,0-1.64-8.17,20.82,20.82,0,0,0-11.11-11.1,20.36,20.36,0,0,0-8.17-1.65h-9.63a20.36,20.36,0,0,0-8.17,1.65,20.82,20.82,0,0,0-11.11,11.1,20.39,20.39,0,0,0-1.64,8.17v55.94a20.35,20.35,0,0,0,1.64,8.17,20.88,20.88,0,0,0,11.11,11.11,20.35,20.35,0,0,0,8.17,1.64h9.63a20.35,20.35,0,0,0,8.17-1.64,20.88,20.88,0,0,0,11.11-11.11,20.52,20.52,0,0,0,1.64-8.17Z"/><path class="cls-1" d="M2116.34,852.38a38,38,0,0,1-3.46,16.1,43.33,43.33,0,0,1-22.8,22,41.74,41.74,0,0,1-16.28,3.23h-12.11a41.66,41.66,0,0,1-16.27-3.23,43.24,43.24,0,0,1-22.8-22,37.85,37.85,0,0,1-3.47-16.1v-6.7l15.16-2.47v9.17a24.39,24.39,0,0,0,2.29,10.52,28.71,28.71,0,0,0,6.17,8.58,29.15,29.15,0,0,0,9,5.81,27.9,27.9,0,0,0,10.76,2.12h10.57a27.42,27.42,0,0,0,10.7-2.12,29.1,29.1,0,0,0,8.93-5.81,28.54,28.54,0,0,0,6.17-8.58,24.39,24.39,0,0,0,2.29-10.52v-5.06q0-8.69-3.4-14.45a32.26,32.26,0,0,0-9.05-9.81,59,59,0,0,0-12.76-6.88q-7.11-2.82-14.63-5.64t-14.63-6.23a52.8,52.8,0,0,1-12.75-8.52,38.19,38.19,0,0,1-9-12.52q-3.4-7.39-3.41-18.21v-3.18a40.44,40.44,0,0,1,3.23-16.1,41.42,41.42,0,0,1,22.1-22,40.67,40.67,0,0,1,16.16-3.24h10.81a40.24,40.24,0,0,1,16.1,3.24,41.58,41.58,0,0,1,22,22,40.44,40.44,0,0,1,3.23,16.1v4.35L2100,768.7v-6.82a26.19,26.19,0,0,0-2.12-10.52,27.27,27.27,0,0,0-5.76-8.52,27.62,27.62,0,0,0-8.52-5.76,26.12,26.12,0,0,0-10.52-2.11h-9.4a26.15,26.15,0,0,0-10.52,2.11,28.38,28.38,0,0,0-8.58,5.76,26.91,26.91,0,0,0-5.81,8.52,26.19,26.19,0,0,0-2.12,10.52v3.18a25.52,25.52,0,0,0,3.41,13.63,31.91,31.91,0,0,0,9,9.46,64.19,64.19,0,0,0,12.75,6.82q7.11,2.88,14.63,5.87t14.63,6.58a55.43,55.43,0,0,1,12.76,8.82,39.43,39.43,0,0,1,9.05,12.75q3.41,7.53,3.4,18.33Z"/><path class="cls-1" d="M2246.74,872.12A35.27,35.27,0,0,1,2227.88,891a34.69,34.69,0,0,1-13.76,2.76h-9.63a34.64,34.64,0,0,1-13.75-2.76,35.24,35.24,0,0,1-18.87-18.87,34.64,34.64,0,0,1-2.76-13.75V804.08a34.69,34.69,0,0,1,2.76-13.76,35.27,35.27,0,0,1,18.87-18.86,34.64,34.64,0,0,1,13.75-2.76h9.63a34.69,34.69,0,0,1,13.76,2.76,35.3,35.3,0,0,1,18.86,18.86,34.69,34.69,0,0,1,2.76,13.76v54.29A34.64,34.64,0,0,1,2246.74,872.12ZM2235,803.25a20.39,20.39,0,0,0-1.64-8.17,20.82,20.82,0,0,0-11.11-11.1,20.36,20.36,0,0,0-8.17-1.65h-9.63a20.36,20.36,0,0,0-8.17,1.65,20.82,20.82,0,0,0-11.11,11.1,20.56,20.56,0,0,0-1.64,8.17v55.94a20.52,20.52,0,0,0,1.64,8.17,20.88,20.88,0,0,0,11.11,11.11,20.35,20.35,0,0,0,8.17,1.64h9.63a20.35,20.35,0,0,0,8.17-1.64,20.88,20.88,0,0,0,11.11-11.11,20.35,20.35,0,0,0,1.64-8.17Z"/><path class="cls-1" d="M2344.81,736.62a16.74,16.74,0,0,0-6.75,1.35,17.29,17.29,0,0,0-9.17,9.22,17.26,17.26,0,0,0-1.35,6.82v17h28.09V784.8h-28.09V891.4h-14.46V784.8h-21.74V771.05h21.74V754.71a31.37,31.37,0,0,1,2.47-12.4,31.77,31.77,0,0,1,16.92-17,31.08,31.08,0,0,1,12.34-2.47h13.28v13.76Z"/><path class="cls-1" d="M2441.42,891.4a31.51,31.51,0,0,1-12.4-2.47,31.15,31.15,0,0,1-10.11-6.82,33.29,33.29,0,0,1-6.81-10.1,30.31,30.31,0,0,1-2.53-12.34V784.8h-21.63V771.05h21.63V742.14l14.46-2.35v31.26h30.55V784.8H2424v75.57a16.66,16.66,0,0,0,1.35,6.76,17.4,17.4,0,0,0,3.7,5.46,17.38,17.38,0,0,0,12.34,5.06h13.16V891.4Z"/><path class="cls-1" d="M2632.28,737.32V891.4h-15.16V737.32h-40.2V722.86h95.55v14.46Z"/><path class="cls-1" d="M2784.77,872.12A35.27,35.27,0,0,1,2765.91,891a34.69,34.69,0,0,1-13.76,2.76h-9.63a34.6,34.6,0,0,1-13.75-2.76,35.24,35.24,0,0,1-18.87-18.87,34.64,34.64,0,0,1-2.76-13.75V804.08a34.69,34.69,0,0,1,2.76-13.76,35.27,35.27,0,0,1,18.87-18.86,34.6,34.6,0,0,1,13.75-2.76h9.63a34.69,34.69,0,0,1,13.76,2.76,35.3,35.3,0,0,1,18.86,18.86,34.69,34.69,0,0,1,2.76,13.76V832.4H2721.6v26.79a20.52,20.52,0,0,0,1.64,8.17,20.88,20.88,0,0,0,11.11,11.11,20.35,20.35,0,0,0,8.17,1.64h9.63a20.35,20.35,0,0,0,8.17-1.64,20.88,20.88,0,0,0,11.11-11.11,20.35,20.35,0,0,0,1.64-8.17v-8l14.46,2.35v4.82A34.64,34.64,0,0,1,2784.77,872.12Zm-11.7-68.87a20.39,20.39,0,0,0-1.64-8.17,20.82,20.82,0,0,0-11.11-11.1,20.36,20.36,0,0,0-8.17-1.65h-9.63a20.36,20.36,0,0,0-8.17,1.65,20.82,20.82,0,0,0-11.11,11.1,20.56,20.56,0,0,0-1.64,8.17v17.87h51.47Z"/><path class="cls-1" d="M2919.1,872.12A35.27,35.27,0,0,1,2900.24,891a34.67,34.67,0,0,1-13.75,2.76h-9.64A34.64,34.64,0,0,1,2863.1,891a35.27,35.27,0,0,1-18.86-18.87,34.47,34.47,0,0,1-2.77-13.75V804.08a34.52,34.52,0,0,1,2.77-13.76,35.3,35.3,0,0,1,18.86-18.86,34.64,34.64,0,0,1,13.75-2.76h9.64a34.67,34.67,0,0,1,13.75,2.76,35.3,35.3,0,0,1,18.86,18.86,34.69,34.69,0,0,1,2.76,13.76v4.81l-14.45,2.35v-8a20.39,20.39,0,0,0-1.65-8.17,20.84,20.84,0,0,0-11.1-11.1,20.43,20.43,0,0,0-8.17-1.65h-9.64a20.39,20.39,0,0,0-8.17,1.65,20.82,20.82,0,0,0-11.11,11.1,20.56,20.56,0,0,0-1.64,8.17v55.94a20.52,20.52,0,0,0,1.64,8.17,20.88,20.88,0,0,0,11.11,11.11,20.39,20.39,0,0,0,8.17,1.64h9.64a20.42,20.42,0,0,0,8.17-1.64,21.17,21.17,0,0,0,6.63-4.47,20.94,20.94,0,0,0,4.47-6.64,20.36,20.36,0,0,0,1.65-8.17v-8l14.45,2.35v4.82A34.64,34.64,0,0,1,2919.1,872.12Z"/><path class="cls-1" d="M3041.74,891.4V803.25a20.39,20.39,0,0,0-1.65-8.17A20.75,20.75,0,0,0,3029,784a20.39,20.39,0,0,0-8.17-1.65h-9.64A20.39,20.39,0,0,0,3003,784a20.75,20.75,0,0,0-11.1,11.1,20.39,20.39,0,0,0-1.65,8.17V891.4h-14.45V722.86h14.45v58.3a34.63,34.63,0,0,1,26.91-12.46h3.65a34.67,34.67,0,0,1,13.75,2.76,35.3,35.3,0,0,1,18.86,18.86,34.69,34.69,0,0,1,2.76,13.76V891.4Z"/><path class="cls-1" d="M3287.72,852.38a38,38,0,0,1-3.47,16.1,43.24,43.24,0,0,1-22.8,22,41.71,41.71,0,0,1-16.28,3.23h-12.1a41.71,41.71,0,0,1-16.28-3.23,43.33,43.33,0,0,1-22.8-22,38,38,0,0,1-3.47-16.1v-6.7l15.16-2.47v9.17a24.4,24.4,0,0,0,2.3,10.52,28.36,28.36,0,0,0,6.17,8.58,28.91,28.91,0,0,0,9,5.81,27.85,27.85,0,0,0,10.75,2.12h10.58a27.41,27.41,0,0,0,10.69-2.12,29.27,29.27,0,0,0,8.94-5.81,28.71,28.71,0,0,0,6.17-8.58,24.54,24.54,0,0,0,2.29-10.52v-5.06q0-8.69-3.41-14.45a32.13,32.13,0,0,0-9.05-9.81,58.7,58.7,0,0,0-12.75-6.88q-7.11-2.82-14.63-5.64t-14.64-6.23a52.8,52.8,0,0,1-12.75-8.52,38.19,38.19,0,0,1-9-12.52q-3.41-7.39-3.41-18.21v-3.18a40.27,40.27,0,0,1,3.24-16.1,41.36,41.36,0,0,1,22.09-22,40.67,40.67,0,0,1,16.16-3.24h10.81a40.24,40.24,0,0,1,16.1,3.24,41.49,41.49,0,0,1,22,22,40.44,40.44,0,0,1,3.23,16.1v4.35l-15.16,2.47v-6.82a26.19,26.19,0,0,0-2.11-10.52,27.27,27.27,0,0,0-5.76-8.52,27.62,27.62,0,0,0-8.52-5.76,26.15,26.15,0,0,0-10.52-2.11h-9.4a26.15,26.15,0,0,0-10.52,2.11,28.38,28.38,0,0,0-8.58,5.76,26.78,26.78,0,0,0-5.82,8.52,26.19,26.19,0,0,0-2.12,10.52v3.18a25.52,25.52,0,0,0,3.41,13.63,31.91,31.91,0,0,0,9,9.46,64.19,64.19,0,0,0,12.75,6.82q7.11,2.88,14.64,5.87t14.63,6.58a55.37,55.37,0,0,1,12.75,8.82,39.28,39.28,0,0,1,9,12.75q3.41,7.53,3.41,18.33Z"/><path class="cls-1" d="M3418.11,872.12A35.27,35.27,0,0,1,3399.25,891a34.64,34.64,0,0,1-13.75,2.76h-9.64a34.64,34.64,0,0,1-13.75-2.76,35.27,35.27,0,0,1-18.86-18.87,34.64,34.64,0,0,1-2.76-13.75V804.08a34.69,34.69,0,0,1,2.76-13.76,35.3,35.3,0,0,1,18.86-18.86,34.64,34.64,0,0,1,13.75-2.76h9.64a34.64,34.64,0,0,1,13.75,2.76,35.3,35.3,0,0,1,18.86,18.86,34.69,34.69,0,0,1,2.76,13.76v54.29A34.64,34.64,0,0,1,3418.11,872.12Zm-11.69-68.87a20.39,20.39,0,0,0-1.65-8.17,20.75,20.75,0,0,0-11.1-11.1,20.39,20.39,0,0,0-8.17-1.65h-9.64a20.39,20.39,0,0,0-8.17,1.65,20.75,20.75,0,0,0-11.1,11.1,20.39,20.39,0,0,0-1.65,8.17v55.94a20.36,20.36,0,0,0,1.65,8.17,20.91,20.91,0,0,0,4.46,6.64,21.22,21.22,0,0,0,6.64,4.47,20.39,20.39,0,0,0,8.17,1.64h9.64a20.39,20.39,0,0,0,8.17-1.64,20.82,20.82,0,0,0,11.1-11.11,20.36,20.36,0,0,0,1.65-8.17Z"/><path class="cls-1" d="M3479.64,891.4V722.86h14.45V891.4Z"/><path class="cls-1" d="M3628.42,891.4l-8-12.23a36.17,36.17,0,0,1-12.34,10.64,34,34,0,0,1-16.22,3.94h-3.64a34.64,34.64,0,0,1-13.75-2.76,35.27,35.27,0,0,1-18.86-18.87,34.47,34.47,0,0,1-2.77-13.75V771.05h14.46v88.14a20.52,20.52,0,0,0,1.64,8.17,20.88,20.88,0,0,0,11.11,11.11,20.39,20.39,0,0,0,8.17,1.64h9.64a20.34,20.34,0,0,0,8.16-1.64,20.88,20.88,0,0,0,11.11-11.11,20.36,20.36,0,0,0,1.65-8.17V771.05h14.45V891.4Z"/><path class="cls-1" d="M3731,891.4a31.51,31.51,0,0,1-12.4-2.47,31,31,0,0,1-10.1-6.82,33.32,33.32,0,0,1-6.82-10.1,30.31,30.31,0,0,1-2.53-12.34V784.8h-21.62V771.05h21.62V742.14l14.46-2.35v31.26h30.56V784.8h-30.56v75.57a16.83,16.83,0,0,0,1.35,6.76,17.4,17.4,0,0,0,3.7,5.46,17.43,17.43,0,0,0,12.34,5.06h13.17V891.4Z"/><path class="cls-1" d="M3799.42,742.14V722.86h16.81v19.28Zm1.18,149.26V771.05h14.45V891.4Z"/><path class="cls-1" d="M3951.44,872.12A35.27,35.27,0,0,1,3932.58,891a34.67,34.67,0,0,1-13.75,2.76h-9.64a34.64,34.64,0,0,1-13.75-2.76,35.27,35.27,0,0,1-18.86-18.87,34.64,34.64,0,0,1-2.76-13.75V804.08a34.69,34.69,0,0,1,2.76-13.76,35.3,35.3,0,0,1,18.86-18.86,34.64,34.64,0,0,1,13.75-2.76h9.64a34.67,34.67,0,0,1,13.75,2.76,35.3,35.3,0,0,1,18.86,18.86,34.69,34.69,0,0,1,2.76,13.76v54.29A34.64,34.64,0,0,1,3951.44,872.12Zm-11.69-68.87a20.39,20.39,0,0,0-1.65-8.17A20.75,20.75,0,0,0,3927,784a20.39,20.39,0,0,0-8.17-1.65h-9.64A20.39,20.39,0,0,0,3901,784a20.75,20.75,0,0,0-11.1,11.1,20.39,20.39,0,0,0-1.65,8.17v55.94a20.36,20.36,0,0,0,1.65,8.17,20.91,20.91,0,0,0,4.46,6.64,21.22,21.22,0,0,0,6.64,4.47,20.39,20.39,0,0,0,8.17,1.64h9.64a20.39,20.39,0,0,0,8.17-1.64,20.82,20.82,0,0,0,11.1-11.11,20.36,20.36,0,0,0,1.65-8.17Z"/><path class="cls-1" d="M4074.08,891.4V803.25a20.39,20.39,0,0,0-1.65-8.17,20.75,20.75,0,0,0-11.1-11.1,20.39,20.39,0,0,0-8.17-1.65h-9.64a20.39,20.39,0,0,0-8.17,1.65,20.75,20.75,0,0,0-11.1,11.1,20.39,20.39,0,0,0-1.65,8.17V891.4h-14.45V771.05H4013l7.88,12.22a36.08,36.08,0,0,1,12.4-10.63,34.27,34.27,0,0,1,16.28-3.94h3.64a34.64,34.64,0,0,1,13.75,2.76,35.3,35.3,0,0,1,18.86,18.86,34.69,34.69,0,0,1,2.76,13.76V891.4Z"/></g></g></svg>