<svg xmlns="http://www.w3.org/2000/svg" width="24" height="24" viewBox="0 0 24 24" fill="none">
	<path d="M17.1892 6.96748C17.6717 6.4876 17.6717 5.70557 17.1892 5.22569L15.4144 3.45088L15.417 3.45342C14.9472 2.9837 14.1398 2.17627 12.9972 1.03623C12.459 0.510648 11.5881 0.515726 11.0549 1.04893L1.05603 11.0401C0.928106 11.1672 0.826578 11.3183 0.757295 11.4848C0.688012 11.6512 0.652344 11.8298 0.652344 12.0101C0.652344 12.1904 0.688012 12.3689 0.757295 12.5354C0.826578 12.7018 0.928106 12.8529 1.05603 12.98L11.0523 22.9687C11.3101 23.2259 11.6593 23.3705 12.0235 23.3705C12.3877 23.3705 12.737 23.2259 12.9947 22.9687L17.1867 18.7792C17.6691 18.2993 17.6691 17.5173 17.1867 17.0374C16.955 16.8068 16.6414 16.6774 16.3145 16.6774C15.9877 16.6774 15.6741 16.8068 15.4424 17.0374L12.2685 20.2163C12.1365 20.3483 11.9308 20.3483 11.7988 20.2163L3.81346 12.2386C3.68142 12.1065 3.68142 11.9009 3.81346 11.7689L11.7963 3.79112C11.8064 3.78096 11.8191 3.77334 11.8293 3.76319C11.9613 3.65909 12.1441 3.66924 12.266 3.79112L15.4449 6.96748C15.9273 7.44991 16.7094 7.44991 17.1892 6.96748ZM9.37654 12.0608C9.37654 12.776 9.6609 13.4619 10.1671 13.9675C10.6732 14.4732 11.3597 14.7573 12.0756 14.7573C12.7914 14.7573 13.4779 14.4732 13.9841 13.9675C14.4902 13.4619 14.7746 12.776 14.7746 12.0608C14.7746 11.3457 14.4902 10.6598 13.9841 10.1541C13.4779 9.64845 12.7914 9.36436 12.0756 9.36436C11.3597 9.36436 10.6732 9.64845 10.1671 10.1541C9.6609 10.6598 9.37654 11.3457 9.37654 12.0608ZM22.991 11.0808L19.8705 7.97549C19.3881 7.49561 18.606 7.49561 18.1262 7.97803C18.0115 8.09222 17.9204 8.22793 17.8583 8.37738C17.7962 8.52684 17.7643 8.68709 17.7643 8.84893C17.7643 9.01077 17.7962 9.17102 17.8583 9.32047C17.9204 9.46993 18.0115 9.60564 18.1262 9.71983L20.2336 11.8247C20.3656 11.9567 20.3656 12.1624 20.2336 12.2944L18.1566 14.3689C18.0419 14.483 17.9509 14.6188 17.8888 14.7682C17.8267 14.9177 17.7947 15.0779 17.7947 15.2397C17.7947 15.4016 17.8267 15.5618 17.8888 15.7113C17.9509 15.8607 18.0419 15.9965 18.1566 16.1106C18.3883 16.3412 18.7019 16.4706 19.0288 16.4706C19.3557 16.4706 19.6692 16.3412 19.901 16.1106L22.9935 13.0206C23.121 12.8932 23.2221 12.7419 23.291 12.5754C23.3599 12.4089 23.3952 12.2304 23.395 12.0502C23.3948 11.8699 23.359 11.6915 23.2896 11.5252C23.2203 11.3588 23.1188 11.2078 22.991 11.0808Z" fill="#4F4F4F" />
</svg>
