<svg xmlns="http://www.w3.org/2000/svg" width="27" height="20" viewBox="0 0 27 20" fill="none">
	<path d="M23.1563 0.412695C22.8769 0.231966 22.5574 0.122628 22.2259 0.0942934C21.8944 0.0659587 21.561 0.119495 21.255 0.250195L11.2288 4.19894C10.9914 4.29555 10.7375 4.34522 10.4813 4.34519H4.0625C3.52378 4.34519 3.00712 4.5592 2.62619 4.94013C2.24526 5.32107 2.03125 5.83772 2.03125 6.37644V6.53894H0V11.4139H2.03125V11.6252C2.04398 12.1554 2.26359 12.6596 2.64315 13.0301C3.02272 13.4005 3.53212 13.6078 4.0625 13.6077L6.5 18.7752C6.66505 19.1232 6.9249 19.4176 7.24971 19.6245C7.57452 19.8315 7.95112 19.9426 8.33625 19.9452H9.36C9.8959 19.9409 10.4084 19.725 10.7858 19.3445C11.1632 18.9641 11.375 18.4499 11.375 17.9139V13.8027L21.255 17.7514C21.498 17.8482 21.7572 17.8978 22.0188 17.8977C22.4245 17.8911 22.8197 17.767 23.1563 17.5402C23.4235 17.3597 23.644 17.1182 23.7994 16.8356C23.9548 16.5531 24.0407 16.2376 24.05 15.9152V2.08645C24.0485 1.75578 23.9663 1.43048 23.8106 1.1388C23.6548 0.847115 23.4302 0.597864 23.1563 0.412695ZM9.34375 6.37644V11.6252H4.0625V6.37644H9.34375ZM9.34375 17.9139H8.32L6.32125 13.6077H9.34375V17.9139ZM11.9763 11.8689C11.7833 11.7703 11.5821 11.6888 11.375 11.6252V6.26269C11.5801 6.22037 11.7813 6.16057 11.9763 6.08395L22.0188 2.08645V15.8664L11.9763 11.8689ZM24.0988 6.94519V11.0077C24.6375 11.0077 25.1541 10.7937 25.5351 10.4128C25.916 10.0318 26.13 9.51517 26.13 8.97645C26.13 8.43772 25.916 7.92107 25.5351 7.54013C25.1541 7.1592 24.6375 6.94519 24.0988 6.94519Z" fill="#4F4F4F" />
</svg>
