<svg xmlns="http://www.w3.org/2000/svg" width="26" height="26" viewBox="0 0 26 26" fill="none">
	<path d="M15.1667 22.75C14.8597 22.75 14.6026 22.646 14.3953 22.438C14.1873 22.2307 14.0833 21.9736 14.0833 21.6667C14.0833 21.3597 14.1873 21.1026 14.3953 20.8953C14.6026 20.6873 14.8597 20.5833 15.1667 20.5833C16.0153 20.5833 16.7689 20.4165 17.4276 20.0828C18.087 19.7484 18.4167 19.3736 18.4167 18.9583C18.4167 18.7056 18.2993 18.4708 18.0646 18.2542C17.8299 18.0375 17.5049 17.8389 17.0896 17.6583L18.6875 16.0604C19.2653 16.4035 19.7257 16.8097 20.0688 17.2792C20.4118 17.7486 20.5833 18.3083 20.5833 18.9583C20.5833 20.15 20.0146 21.0799 18.8771 21.7479C17.7396 22.416 16.5028 22.75 15.1667 22.75ZM4.95625 14.4625C4.43264 14.1556 4.01736 13.7988 3.71042 13.3922C3.40347 12.9863 3.25 12.4944 3.25 11.9167C3.25 11.1583 3.52986 10.5217 4.08958 10.0068C4.64931 9.49253 5.65139 8.91944 7.09583 8.2875C8.23333 7.76389 8.95989 7.39808 9.2755 7.19008C9.59183 6.98281 9.75 6.75278 9.75 6.5C9.75 6.21111 9.57378 5.95833 9.22133 5.74167C8.86961 5.525 8.32361 5.41667 7.58333 5.41667C7.13194 5.41667 6.75278 5.47083 6.44583 5.57917C6.13889 5.6875 5.85903 5.86806 5.60625 6.12083C5.40764 6.31944 5.16389 6.43681 4.875 6.47292C4.58611 6.50903 4.32431 6.42778 4.08958 6.22917C3.85486 6.04861 3.71944 5.81389 3.68333 5.525C3.64722 5.23611 3.72847 4.97431 3.92708 4.73958C4.27014 4.32431 4.76233 3.97222 5.40367 3.68333C6.04428 3.39444 6.77083 3.25 7.58333 3.25C8.88333 3.25 9.93056 3.54322 10.725 4.12967C11.5194 4.71683 11.9167 5.50694 11.9167 6.5C11.9167 7.20417 11.6549 7.83611 11.1312 8.39583C10.6076 8.95556 9.55139 9.57847 7.9625 10.2646C6.91528 10.716 6.22917 11.05 5.90417 11.2667C5.57917 11.4833 5.41667 11.7 5.41667 11.9167C5.41667 12.0792 5.52031 12.2373 5.72758 12.3912C5.93558 12.5443 6.22014 12.6931 6.58125 12.8375L4.95625 14.4625ZM20.4208 11.2667L15.8167 6.6625L16.9542 5.525C17.3875 5.09167 17.9064 4.875 18.5109 4.875C19.1161 4.875 19.6264 5.09167 20.0417 5.525L21.5583 7.04167C21.9917 7.45694 22.2083 7.96683 22.2083 8.57133C22.2083 9.17656 21.9917 9.69583 21.5583 10.1292L20.4208 11.2667ZM6.5 20.5833H8.01667L15.8167 12.7833L14.3 11.2667L6.5 19.0667V20.5833ZM4.875 22.75C4.73056 22.75 4.60417 22.6958 4.49583 22.5875C4.3875 22.4792 4.33333 22.3528 4.33333 22.2083V18.3625C4.33333 18.3264 4.3875 18.2 4.49583 17.9833L14.3 8.17917L18.9042 12.7833L9.1 22.5875C9.06389 22.6236 8.9375 22.6778 8.72083 22.75H4.875ZM14.3 11.2667L15.8167 12.7833L14.3 11.2667Z" fill="#4F4F4F" />
</svg>
