<svg xmlns="http://www.w3.org/2000/svg" width="27" height="26" viewBox="0 0 27 26" fill="none">
	<path d="M16.3488 2C16.3488 2 15.192 2.40625 13.375 2.40625C11.558 2.40625 10.4012 2 10.4012 2C10.2185 2.00001 10.037 2.03091 9.86449 2.09141L2 4.84375L2.84449 9.3125L5.32668 9.59281C5.63065 9.62721 5.91058 9.77467 6.11086 10.0059C6.31115 10.2371 6.41715 10.5352 6.40781 10.841L6.0625 23.125H20.6875L20.3422 10.841C20.3329 10.5352 20.4389 10.2371 20.6391 10.0059C20.8394 9.77467 21.1193 9.62721 21.4233 9.59281L23.9055 9.3125L24.75 4.84375L16.8855 2.09141C16.713 2.03091 16.5315 2.00001 16.3488 2Z" stroke="#4F4F4F" stroke-width="2" stroke-linecap="round" stroke-linejoin="round" />
	<path d="M17.301 2.23682C17.0707 3.10221 16.561 3.86727 15.851 4.41304C15.141 4.95881 14.2706 5.2547 13.3751 5.2547C12.4796 5.2547 11.6092 4.95881 10.8992 4.41304C10.1892 3.86727 9.67949 3.10221 9.44922 2.23682" stroke="#4F4F4F" stroke-width="2" stroke-linecap="round" stroke-linejoin="round" />
</svg>
